<svg xmlns="http://www.w3.org/2000/svg" viewBox="0 0 853.91 774.72"><defs><style>.cls-1,.cls-10,.cls-11,.cls-12,.cls-13,.cls-6,.cls-76,.cls-77,.cls-9{fill:none;}.cls-2{fill:#4f5756;}.cls-3{fill:#666766;}.cls-15,.cls-16,.cls-4{fill:#231f20;}.cls-14,.cls-26,.cls-5{fill:#fff;}.cls-13,.cls-6{stroke:#7e7173;}.cls-10,.cls-11,.cls-12,.cls-13,.cls-14,.cls-6,.cls-62,.cls-76,.cls-77,.cls-9{stroke-miterlimit:10;}.cls-15,.cls-62,.cls-7,.cls-75{font-size:12px;}.cls-7{fill:#7e7173;}.cls-15,.cls-16,.cls-26,.cls-40,.cls-62,.cls-7,.cls-75{font-family:MyriadPro-Regular, Myriad Pro;}.cls-8{letter-spacing:0.02em;}.cls-9{stroke:#7d7173;}.cls-10,.cls-11,.cls-12,.cls-14{stroke:#231f20;}.cls-10{stroke-width:1.5px;}.cls-12,.cls-13,.cls-62,.cls-76{stroke-width:0.5px;}.cls-16,.cls-40{font-size:18px;}.cls-17{letter-spacing:0em;}.cls-18{letter-spacing:0em;}.cls-19{letter-spacing:0.01em;}.cls-20{letter-spacing:0.03em;}.cls-21{letter-spacing:-0.01em;}.cls-22{letter-spacing:-0.04em;}.cls-23,.cls-26{font-size:14px;}.cls-24{letter-spacing:-0.03em;}.cls-25{letter-spacing:0em;}.cls-27{letter-spacing:-0.01em;}.cls-28{letter-spacing:-0.01em;}.cls-29{letter-spacing:-0.07em;}.cls-30{letter-spacing:-0.03em;}.cls-31{letter-spacing:0em;}.cls-32{letter-spacing:-0.01em;}.cls-33{letter-spacing:-0.03em;}.cls-34{letter-spacing:-0.01em;}.cls-35{letter-spacing:0em;}.cls-36{letter-spacing:-0.02em;}.cls-37{letter-spacing:-0.01em;}.cls-38{letter-spacing:0.01em;}.cls-39{letter-spacing:-0.09em;}.cls-40,.cls-62,.cls-75{fill:#fce2ea;}.cls-41{letter-spacing:0em;}.cls-42{letter-spacing:-0.01em;}.cls-43{letter-spacing:0.01em;}.cls-44{letter-spacing:0em;}.cls-45{letter-spacing:0em;}.cls-46{letter-spacing:-0.02em;}.cls-47{letter-spacing:0em;}.cls-48{letter-spacing:-0.01em;}.cls-49{letter-spacing:-0.03em;}.cls-50{letter-spacing:0.02em;}.cls-51{letter-spacing:-0.04em;}.cls-52{letter-spacing:0em;}.cls-53{letter-spacing:-0.01em;}.cls-54{letter-spacing:-0.01em;}.cls-55{letter-spacing:-0.09em;}.cls-56{letter-spacing:-0.01em;}.cls-57{letter-spacing:-0.01em;}.cls-58{letter-spacing:-0.01em;}.cls-59{letter-spacing:0em;}.cls-60{letter-spacing:-0.01em;}.cls-61{letter-spacing:0em;}.cls-62{stroke:#fde8ed;}.cls-63{letter-spacing:0em;}.cls-64{letter-spacing:0em;}.cls-65{letter-spacing:-0.02em;}.cls-66{letter-spacing:0.02em;}.cls-67{letter-spacing:-0.01em;}.cls-68{letter-spacing:0em;}.cls-69{letter-spacing:-0.01em;}.cls-70{letter-spacing:-0.03em;}.cls-71{letter-spacing:-0.01em;}.cls-72{letter-spacing:0em;}.cls-73{letter-spacing:-0.01em;}.cls-74{letter-spacing:0em;}.cls-76,.cls-77{stroke:#fff;}</style></defs><title>2202 11 ST</title><g id="Layer_12" data-name="Layer 12"><rect class="cls-1" x="57.02" y="124.85" width="493.63" height="359.91"/></g><g id="Layer_9" data-name="Layer 9"><rect class="cls-2" x="57.11" y="506.64" width="752.43" height="153.6"/><rect class="cls-3" x="57.68" y="506.54" width="752.43" height="42.33"/></g><g id="Layer_4" data-name="Layer 4"><polyline class="cls-4" points="105.3 410.55 118.03 443.87 105.92 432.76 105.3 410.55"/><polyline class="cls-5" points="105.92 432.76 105.3 409.91 94.81 442.46 105.92 432.76"/></g><g id="Layer_5" data-name="Layer 5"><rect class="cls-6" x="57.02" y="150.42" width="493.63" height="333.34"/><polygon class="cls-6" points="550.56 150.42 57.02 150.42 57.02 137.63 57.02 124.85 550.56 124.85 550.56 150.42"/><text class="cls-7" transform="translate(287.43 143.64)">11TH STRE<tspan class="cls-8" x="52.88" y="0">E</tspan><tspan x="58.98" y="0">T</tspan></text></g><g id="Parking"><line class="cls-9" x1="209.96" y1="388" x2="209.96" y2="406.72"/><line class="cls-9" x1="209.96" y1="358.04" x2="209.96" y2="376.08"/><line class="cls-9" x1="209.96" y1="327.91" x2="209.96" y2="346.29"/><line class="cls-9" x1="209.96" y1="298.63" x2="209.96" y2="316.51"/><line class="cls-9" x1="209.96" y1="286.09" x2="209.96" y2="286.38"/><line class="cls-9" x1="209.96" y1="267.95" x2="209.96" y2="286.09"/><line class="cls-9" x1="209.96" y1="246.89" x2="209.96" y2="256.46"/><line class="cls-9" x1="204.88" y1="416.59" x2="204.88" y2="425.61"/><line class="cls-9" x1="204.88" y1="388" x2="204.88" y2="406.72"/><line class="cls-9" x1="204.88" y1="358.04" x2="204.88" y2="376.08"/><line class="cls-9" x1="204.88" y1="327.91" x2="204.88" y2="346.29"/><line class="cls-9" x1="204.87" y1="298.18" x2="204.88" y2="316.51"/><line class="cls-9" x1="204.87" y1="268.17" x2="204.88" y2="286.38"/><line class="cls-9" x1="204.88" y1="246.89" x2="204.88" y2="256.72"/><line class="cls-9" x1="200.7" y1="416.63" x2="200.7" y2="425.66"/><line class="cls-9" x1="200.7" y1="388.04" x2="200.7" y2="406.76"/><line class="cls-9" x1="200.7" y1="358.08" x2="200.7" y2="376.12"/><line class="cls-9" x1="200.7" y1="327.95" x2="200.7" y2="346.34"/><line class="cls-9" x1="200.7" y1="298.22" x2="200.7" y2="316.55"/><line class="cls-9" x1="200.7" y1="268.17" x2="200.7" y2="286.42"/><line class="cls-9" x1="200.7" y1="246.93" x2="200.7" y2="256.72"/><line class="cls-9" x1="196.52" y1="416.61" x2="196.52" y2="425.63"/><line class="cls-9" x1="196.52" y1="388.02" x2="196.52" y2="406.74"/><line class="cls-9" x1="196.52" y1="358.06" x2="196.52" y2="376.1"/><line class="cls-9" x1="196.52" y1="327.93" x2="196.52" y2="346.32"/><line class="cls-9" x1="196.52" y1="298.2" x2="196.52" y2="316.53"/><line class="cls-9" x1="196.52" y1="268.17" x2="196.52" y2="286.4"/><line class="cls-9" x1="196.52" y1="246.91" x2="196.52" y2="256.72"/><line class="cls-9" x1="192.34" y1="416.66" x2="192.34" y2="425.68"/><line class="cls-9" x1="192.34" y1="388.06" x2="192.34" y2="406.78"/><line class="cls-9" x1="192.34" y1="358.1" x2="192.34" y2="376.15"/><line class="cls-9" x1="192.34" y1="327.98" x2="192.34" y2="346.36"/><line class="cls-9" x1="192.34" y1="298.24" x2="192.34" y2="316.57"/><line class="cls-9" x1="192.34" y1="268.17" x2="192.34" y2="286.44"/><line class="cls-9" x1="192.34" y1="246.95" x2="192.34" y2="256.72"/><line class="cls-9" x1="187.64" y1="416.52" x2="187.64" y2="426.07"/><line class="cls-9" x1="187.64" y1="388.45" x2="187.64" y2="407.18"/><line class="cls-9" x1="187.64" y1="358.5" x2="187.64" y2="376.54"/><line class="cls-9" x1="187.64" y1="328.37" x2="187.64" y2="346.75"/><line class="cls-9" x1="187.64" y1="298.11" x2="187.64" y2="316.96"/><line class="cls-9" x1="187.64" y1="268.17" x2="187.64" y2="286.38"/><line class="cls-9" x1="187.64" y1="247.35" x2="187.64" y2="256.72"/><line class="cls-9" x1="183.47" y1="416.56" x2="183.47" y2="426.11"/><line class="cls-9" x1="183.47" y1="388.5" x2="183.47" y2="407.22"/><line class="cls-9" x1="183.47" y1="358.54" x2="183.47" y2="376.58"/><line class="cls-9" x1="183.47" y1="328.41" x2="183.47" y2="346.79"/><line class="cls-9" x1="183.47" y1="298.16" x2="183.47" y2="317.01"/><line class="cls-9" x1="183.47" y1="268.17" x2="183.47" y2="286.42"/><line class="cls-9" x1="183.47" y1="247.39" x2="183.47" y2="256.72"/><line class="cls-9" x1="179.29" y1="416.54" x2="179.29" y2="426.09"/><line class="cls-9" x1="179.29" y1="388.48" x2="179.29" y2="407.2"/><line class="cls-9" x1="179.29" y1="358.52" x2="179.29" y2="376.56"/><line class="cls-9" x1="179.29" y1="328.39" x2="179.29" y2="346.77"/><line class="cls-9" x1="179.28" y1="298.14" x2="179.29" y2="316.99"/><line class="cls-9" x1="179.28" y1="268.17" x2="179.28" y2="286.4"/><line class="cls-9" x1="179.29" y1="247.37" x2="179.29" y2="256.72"/><line class="cls-9" x1="175.11" y1="416.58" x2="175.11" y2="425.13"/><line class="cls-9" x1="175.11" y1="388.52" x2="175.11" y2="407.24"/><line class="cls-9" x1="175.11" y1="358.56" x2="175.11" y2="376.6"/><line class="cls-9" x1="175.11" y1="328.43" x2="175.11" y2="346.82"/><line class="cls-9" x1="175.11" y1="298.18" x2="175.11" y2="317.03"/><line class="cls-9" x1="175.11" y1="286.09" x2="175.11" y2="286.44"/><line class="cls-9" x1="175.11" y1="268.17" x2="175.11" y2="286.09"/><line class="cls-9" x1="175.11" y1="247.41" x2="175.11" y2="256.72"/><line class="cls-9" x1="171.05" y1="247.57" x2="171.05" y2="257.15"/><line class="cls-9" x1="165.97" y1="247.57" x2="165.97" y2="257.4"/><line class="cls-9" x1="161.79" y1="247.61" x2="161.79" y2="257.4"/><line class="cls-9" x1="157.61" y1="247.59" x2="157.61" y2="257.4"/><line class="cls-9" x1="153.43" y1="247.63" x2="153.43" y2="257.4"/><line class="cls-9" x1="148.74" y1="247.03" x2="148.74" y2="257.4"/><line class="cls-9" x1="144.56" y1="247.07" x2="144.56" y2="257.4"/><line class="cls-9" x1="140.38" y1="247.05" x2="140.38" y2="257.4"/><line class="cls-9" x1="136.2" y1="247.09" x2="136.2" y2="257.4"/><line class="cls-9" x1="132.43" y1="247.57" x2="132.43" y2="257.15"/><line class="cls-9" x1="127.35" y1="247.57" x2="127.35" y2="257.4"/><line class="cls-9" x1="123.17" y1="247.61" x2="123.17" y2="257.4"/><line class="cls-9" x1="118.99" y1="247.59" x2="118.99" y2="257.4"/><line class="cls-9" x1="114.81" y1="247.63" x2="114.81" y2="257.4"/><line class="cls-9" x1="110.12" y1="247.03" x2="110.12" y2="257.4"/><line class="cls-9" x1="105.94" y1="247.07" x2="105.94" y2="257.4"/><line class="cls-9" x1="101.76" y1="247.05" x2="101.76" y2="257.4"/><line class="cls-9" x1="97.58" y1="247.09" x2="97.58" y2="257.4"/><line class="cls-9" x1="92.96" y1="247.07" x2="92.96" y2="257.4"/><line class="cls-9" x1="88.78" y1="247.05" x2="88.78" y2="257.4"/><line class="cls-9" x1="84.6" y1="247.09" x2="84.6" y2="257.4"/><line class="cls-9" x1="170.81" y1="268.76" x2="170.81" y2="286.63"/><line class="cls-9" x1="165.72" y1="268.3" x2="165.72" y2="286.63"/><line class="cls-9" x1="161.55" y1="268.35" x2="161.55" y2="286.68"/><line class="cls-9" x1="157.36" y1="268.33" x2="157.37" y2="286.66"/><line class="cls-9" x1="153.19" y1="268.37" x2="153.19" y2="286.7"/><line class="cls-9" x1="148.49" y1="268.24" x2="148.51" y2="286.63"/><line class="cls-9" x1="144.31" y1="268.28" x2="144.34" y2="286.68"/><line class="cls-9" x1="140.13" y1="268.26" x2="140.15" y2="286.66"/><line class="cls-9" x1="135.96" y1="268.31" x2="135.98" y2="286.7"/><line class="cls-9" x1="131.79" y1="268.76" x2="131.79" y2="286.63"/><line class="cls-9" x1="126.71" y1="268.3" x2="126.71" y2="286.63"/><line class="cls-9" x1="122.53" y1="268.35" x2="122.53" y2="286.68"/><line class="cls-9" x1="118.35" y1="268.33" x2="118.35" y2="286.66"/><line class="cls-9" x1="114.17" y1="268.37" x2="114.17" y2="286.7"/><line class="cls-9" x1="109.47" y1="268.24" x2="109.5" y2="286.63"/><line class="cls-9" x1="105.3" y1="268.28" x2="105.32" y2="286.68"/><line class="cls-9" x1="101.11" y1="268.26" x2="101.14" y2="286.66"/><line class="cls-9" x1="96.94" y1="268.31" x2="96.96" y2="286.7"/><line class="cls-9" x1="170.49" y1="298.72" x2="170.49" y2="316.59"/><line class="cls-9" x1="165.41" y1="298.26" x2="165.41" y2="316.59"/><line class="cls-9" x1="161.23" y1="298.3" x2="161.23" y2="316.63"/><line class="cls-9" x1="157.05" y1="298.28" x2="157.05" y2="316.61"/><line class="cls-9" x1="152.87" y1="298.33" x2="152.87" y2="316.66"/><line class="cls-9" x1="148.17" y1="298.2" x2="148.18" y2="317.05"/><line class="cls-9" x1="144" y1="298.24" x2="144" y2="317.09"/><line class="cls-9" x1="139.82" y1="298.22" x2="139.82" y2="317.07"/><line class="cls-9" x1="135.64" y1="298.26" x2="135.64" y2="317.11"/><line class="cls-9" x1="131.47" y1="298.72" x2="131.47" y2="316.59"/><line class="cls-9" x1="126.39" y1="298.26" x2="126.39" y2="316.59"/><line class="cls-9" x1="122.21" y1="298.3" x2="122.21" y2="316.63"/><line class="cls-9" x1="118.03" y1="298.28" x2="118.03" y2="316.61"/><line class="cls-9" x1="113.85" y1="298.33" x2="113.85" y2="316.66"/><line class="cls-9" x1="109.16" y1="298.2" x2="109.16" y2="317.05"/><line class="cls-9" x1="104.98" y1="298.24" x2="104.98" y2="317.09"/><line class="cls-9" x1="170.81" y1="328.17" x2="170.81" y2="346.04"/><line class="cls-9" x1="165.73" y1="327.71" x2="165.73" y2="346.04"/><line class="cls-9" x1="161.55" y1="327.75" x2="161.55" y2="346.08"/><line class="cls-9" x1="157.37" y1="327.73" x2="157.37" y2="346.06"/><line class="cls-9" x1="153.19" y1="327.77" x2="153.19" y2="346.1"/><line class="cls-9" x1="148.49" y1="327.65" x2="148.5" y2="346.5"/><line class="cls-9" x1="144.32" y1="327.69" x2="144.32" y2="346.54"/><line class="cls-9" x1="140.13" y1="327.67" x2="140.14" y2="346.52"/><line class="cls-9" x1="135.96" y1="327.71" x2="135.96" y2="346.56"/><line class="cls-9" x1="131.79" y1="328.17" x2="131.79" y2="346.04"/><line class="cls-9" x1="126.71" y1="327.71" x2="126.71" y2="346.04"/><line class="cls-9" x1="122.53" y1="327.75" x2="122.53" y2="346.08"/><line class="cls-9" x1="118.35" y1="327.73" x2="118.35" y2="346.06"/><line class="cls-9" x1="114.17" y1="327.77" x2="114.17" y2="346.1"/><line class="cls-9" x1="109.48" y1="327.65" x2="109.48" y2="346.5"/><line class="cls-9" x1="105.3" y1="327.69" x2="105.3" y2="346.54"/><line class="cls-6" x1="399.71" y1="280.69" x2="418.09" y2="280.69"/><line class="cls-6" x1="399.71" y1="285.77" x2="418.09" y2="285.77"/><line class="cls-6" x1="399.75" y1="289.95" x2="418.13" y2="289.95"/><line class="cls-6" x1="399.73" y1="294.13" x2="418.11" y2="294.13"/><line class="cls-6" x1="399.77" y1="298.31" x2="418.15" y2="298.31"/><line class="cls-6" x1="400.16" y1="303" x2="418.55" y2="303"/><line class="cls-6" x1="400.21" y1="307.18" x2="418.59" y2="307.18"/><line class="cls-6" x1="400.18" y1="311.36" x2="418.57" y2="311.36"/><line class="cls-6" x1="400.23" y1="315.54" x2="418.61" y2="315.54"/><line class="cls-6" x1="399.96" y1="319.84" x2="417.83" y2="319.84"/><line class="cls-6" x1="399.5" y1="324.92" x2="417.83" y2="324.92"/><line class="cls-9" x1="379.11" y1="280.01" x2="389.49" y2="280.01"/><line class="cls-9" x1="379.11" y1="285.1" x2="389.49" y2="285.1"/><line class="cls-9" x1="379.15" y1="289.27" x2="389.54" y2="289.27"/><line class="cls-9" x1="379.13" y1="293.46" x2="389.51" y2="293.46"/><line class="cls-9" x1="379.17" y1="297.63" x2="389.56" y2="297.63"/><line class="cls-6" x1="378.57" y1="302.33" x2="389.95" y2="302.33"/><line class="cls-6" x1="378.61" y1="306.5" x2="389.99" y2="306.5"/><line class="cls-6" x1="378.59" y1="310.69" x2="389.97" y2="310.69"/><line class="cls-6" x1="378.63" y1="314.86" x2="390.01" y2="314.86"/><line class="cls-9" x1="379.36" y1="319.16" x2="389.24" y2="319.16"/><line class="cls-9" x1="378.91" y1="324.25" x2="389.24" y2="324.25"/><line class="cls-9" x1="378.91" y1="327.84" x2="389.24" y2="327.83"/><line class="cls-6" x1="399.55" y1="329.1" x2="417.88" y2="329.1"/><line class="cls-6" x1="399.52" y1="333.28" x2="417.85" y2="333.28"/><line class="cls-6" x1="399.57" y1="337.46" x2="417.9" y2="337.46"/><line class="cls-6" x1="399.44" y1="342.15" x2="418.29" y2="342.15"/><line class="cls-6" x1="399.48" y1="346.33" x2="418.33" y2="346.33"/><line class="cls-6" x1="399.46" y1="350.51" x2="418.31" y2="350.51"/><line class="cls-6" x1="399.5" y1="354.69" x2="418.35" y2="354.69"/><line class="cls-6" x1="399.96" y1="358.85" x2="417.83" y2="358.85"/><line class="cls-6" x1="429.07" y1="280.75" x2="447.45" y2="280.75"/><line class="cls-6" x1="429.07" y1="285.84" x2="447.45" y2="285.84"/><line class="cls-6" x1="429.11" y1="290.01" x2="447.49" y2="290.01"/><line class="cls-6" x1="429.09" y1="294.2" x2="447.47" y2="294.2"/><line class="cls-6" x1="429.13" y1="298.37" x2="447.51" y2="298.37"/><line class="cls-6" x1="429.52" y1="303.07" x2="447.91" y2="303.07"/><line class="cls-6" x1="429.57" y1="307.24" x2="447.95" y2="307.24"/><line class="cls-6" x1="429.55" y1="311.43" x2="447.93" y2="311.43"/><line class="cls-6" x1="429.59" y1="315.6" x2="447.97" y2="315.6"/><line class="cls-6" x1="429.32" y1="319.9" x2="447.19" y2="319.9"/><line class="cls-6" x1="428.86" y1="324.99" x2="447.19" y2="324.99"/><line class="cls-6" x1="428.91" y1="329.16" x2="447.24" y2="329.16"/><line class="cls-6" x1="428.89" y1="333.35" x2="447.22" y2="333.34"/><line class="cls-6" x1="428.93" y1="337.52" x2="447.26" y2="337.52"/><line class="cls-6" x1="428.8" y1="342.22" x2="447.65" y2="342.22"/><line class="cls-6" x1="428.84" y1="346.4" x2="447.69" y2="346.39"/><line class="cls-6" x1="428.82" y1="350.58" x2="447.67" y2="350.58"/><line class="cls-6" x1="428.87" y1="354.75" x2="447.72" y2="354.75"/><line class="cls-6" x1="429.32" y1="358.92" x2="447.19" y2="358.92"/><line class="cls-6" x1="424.3" y1="191.42" x2="442.68" y2="191.42"/><line class="cls-6" x1="424.3" y1="196.51" x2="442.68" y2="196.51"/><line class="cls-6" x1="424.34" y1="200.68" x2="442.73" y2="200.68"/><line class="cls-6" x1="424.32" y1="204.87" x2="442.71" y2="204.87"/><line class="cls-6" x1="424.36" y1="209.04" x2="442.75" y2="209.04"/><line class="cls-6" x1="423.88" y1="213.48" x2="442.26" y2="213.48"/><line class="cls-6" x1="423.8" y1="217.91" x2="442.18" y2="217.91"/><line class="cls-6" x1="453.41" y1="191.69" x2="464.79" y2="191.69"/><line class="cls-6" x1="453.41" y1="196.77" x2="464.79" y2="196.77"/><line class="cls-6" x1="453.45" y1="200.95" x2="464.83" y2="200.95"/><line class="cls-6" x1="453.43" y1="205.13" x2="463.81" y2="205.13"/><line class="cls-6" x1="453.47" y1="209.31" x2="463.85" y2="209.31"/><line class="cls-6" x1="452.98" y1="213.74" x2="464.37" y2="213.74"/><line class="cls-6" x1="452.91" y1="218.18" x2="464.29" y2="218.18"/><line class="cls-6" x1="453.26" y1="222.31" x2="464.65" y2="222.31"/><line class="cls-9" x1="245.04" y1="178.01" x2="253.42" y2="178.01"/><line class="cls-9" x1="245.04" y1="183.1" x2="253.42" y2="183.1"/><line class="cls-9" x1="245.08" y1="187.27" x2="253.46" y2="187.27"/><line class="cls-9" x1="245.06" y1="191.46" x2="253.44" y2="191.46"/><line class="cls-9" x1="245.1" y1="195.63" x2="253.48" y2="195.63"/><line class="cls-9" x1="244.61" y1="200.07" x2="252.99" y2="200.07"/><line class="cls-9" x1="244.54" y1="204.5" x2="252.92" y2="204.5"/><path class="cls-9" d="M253.28,208.64h-6.77a1.51,1.51,0,0,0-1.51,1.61v.12a1.39,1.39,0,0,0,1.38,1.29h7.09"/><line class="cls-6" x1="452.78" y1="226.75" x2="464.16" y2="226.75"/><line class="cls-6" x1="452.7" y1="231.18" x2="464.08" y2="231.18"/><line class="cls-9" x1="458.45" y1="274.71" x2="467.84" y2="274.71"/><line class="cls-9" x1="458.45" y1="279.79" x2="467.84" y2="279.79"/><line class="cls-9" x1="458.49" y1="283.97" x2="467.88" y2="283.97"/><line class="cls-9" x1="458.47" y1="287.15" x2="467.86" y2="287.15"/><line class="cls-9" x1="458.52" y1="292.33" x2="467.9" y2="292.33"/><line class="cls-9" x1="458.03" y1="296.76" x2="468.41" y2="296.76"/><line class="cls-9" x1="457.95" y1="301.2" x2="468.34" y2="301.2"/><line class="cls-9" x1="458.31" y1="305.33" x2="467.69" y2="305.33"/><line class="cls-9" x1="457.82" y1="309.77" x2="467.2" y2="309.77"/><line class="cls-9" x1="457.75" y1="314.2" x2="467.13" y2="314.2"/><line class="cls-9" x1="457.86" y1="317.68" x2="467.24" y2="317.68"/><line class="cls-9" x1="457.78" y1="322.12" x2="467.17" y2="322.12"/><line class="cls-9" x1="457.78" y1="326.55" x2="467.17" y2="326.55"/><line class="cls-9" x1="458.35" y1="341.96" x2="467.73" y2="341.96"/><line class="cls-9" x1="458.27" y1="346.4" x2="467.65" y2="346.4"/><line class="cls-9" x1="458.27" y1="350.83" x2="467.65" y2="350.83"/><line class="cls-9" x1="520.02" y1="184.34" x2="520.02" y2="194.1"/><line class="cls-9" x1="514.94" y1="184.34" x2="514.94" y2="193.73"/><line class="cls-9" x1="510.76" y1="184.39" x2="510.76" y2="193.77"/><line class="cls-9" x1="507.34" y1="184.37" x2="507.34" y2="193.75"/><line class="cls-9" x1="503.17" y1="184.41" x2="503.17" y2="193.79"/><line class="cls-9" x1="498.97" y1="184.52" x2="498.97" y2="194.3"/><line class="cls-9" x1="495.22" y1="184.56" x2="495.22" y2="194.27"/><line class="cls-9" x1="491.08" y1="184.56" x2="491.08" y2="194.13"/><line class="cls-9" x1="486.96" y1="184.52" x2="486.96" y2="194.1"/><line class="cls-9" x1="482.53" y1="184.52" x2="482.53" y2="194.02"/><line class="cls-9" x1="481.99" y1="173.38" x2="481.99" y2="164"/><line class="cls-9" x1="486.17" y1="173.34" x2="486.17" y2="163.95"/><line class="cls-9" x1="490.35" y1="173.36" x2="490.35" y2="163.98"/><line class="cls-9" x1="494.53" y1="173.32" x2="494.53" y2="163.93"/><line class="cls-9" x1="498.73" y1="173.24" x2="498.73" y2="163.45"/><line class="cls-9" x1="503.17" y1="173.24" x2="503.17" y2="163.53"/><line class="cls-9" x1="507.3" y1="173.24" x2="507.3" y2="163.66"/><line class="cls-9" x1="511.37" y1="173.24" x2="511.37" y2="163.66"/><line class="cls-9" x1="515.17" y1="173.24" x2="515.17" y2="163.74"/><line class="cls-6" x1="436.67" y1="173.65" x2="436.67" y2="164.27"/><line class="cls-6" x1="440.85" y1="173.61" x2="440.85" y2="164.23"/><line class="cls-6" x1="445.03" y1="173.63" x2="445.03" y2="164.25"/><line class="cls-6" x1="449.21" y1="173.59" x2="449.21" y2="164.2"/><line class="cls-6" x1="453.41" y1="173.51" x2="453.41" y2="163.73"/><line class="cls-9" x1="457.85" y1="173.51" x2="457.85" y2="163.8"/><line class="cls-9" x1="461.98" y1="173.51" x2="461.98" y2="163.93"/><line class="cls-9" x1="466.05" y1="173.51" x2="466.05" y2="163.93"/><line class="cls-9" x1="469.85" y1="173.51" x2="469.85" y2="164.01"/><line class="cls-6" x1="401.44" y1="173.62" x2="401.44" y2="164.24"/><line class="cls-6" x1="405.64" y1="173.54" x2="405.64" y2="163.76"/><line class="cls-6" x1="410.08" y1="173.54" x2="410.08" y2="163.83"/><line class="cls-6" x1="414.21" y1="173.54" x2="414.21" y2="163.96"/><line class="cls-6" x1="418.27" y1="173.54" x2="418.27" y2="163.96"/><line class="cls-6" x1="422.08" y1="173.54" x2="422.08" y2="164.04"/><line class="cls-9" x1="478.77" y1="184.43" x2="478.77" y2="194.01"/><line class="cls-9" x1="475.33" y1="184.43" x2="475.33" y2="194.01"/><line class="cls-9" x1="470.9" y1="184.43" x2="470.9" y2="193.93"/><line class="cls-6" x1="424.56" y1="229.57" x2="442.43" y2="229.57"/><line class="cls-6" x1="424.1" y1="234.66" x2="442.43" y2="234.66"/><line class="cls-6" x1="424.14" y1="238.83" x2="442.47" y2="238.83"/><line class="cls-6" x1="424.12" y1="243.02" x2="442.45" y2="243.01"/><line class="cls-6" x1="424.16" y1="247.19" x2="442.49" y2="247.19"/><line class="cls-6" x1="424.04" y1="251.89" x2="442.89" y2="251.89"/><line class="cls-6" x1="393.88" y1="191.49" x2="412.26" y2="191.49"/><line class="cls-6" x1="393.88" y1="196.57" x2="412.26" y2="196.57"/><line class="cls-6" x1="393.92" y1="200.75" x2="412.3" y2="200.75"/><line class="cls-6" x1="393.9" y1="204.93" x2="412.28" y2="204.93"/><line class="cls-6" x1="393.94" y1="209.11" x2="412.32" y2="209.11"/><line class="cls-6" x1="394.33" y1="213.8" x2="412.72" y2="213.8"/><line class="cls-6" x1="394.38" y1="217.98" x2="412.76" y2="217.98"/><line class="cls-6" x1="394.13" y1="229.64" x2="412" y2="229.64"/><line class="cls-6" x1="393.67" y1="234.72" x2="412" y2="234.72"/><line class="cls-6" x1="393.72" y1="238.9" x2="412.05" y2="238.9"/><line class="cls-6" x1="393.69" y1="243.08" x2="412.02" y2="243.08"/><line class="cls-6" x1="393.74" y1="247.26" x2="412.07" y2="247.26"/><line class="cls-6" x1="393.61" y1="251.95" x2="412.46" y2="251.95"/><line class="cls-9" x1="170.5" y1="358.65" x2="170.5" y2="376.52"/><line class="cls-9" x1="165.41" y1="358.19" x2="165.41" y2="376.52"/><line class="cls-9" x1="161.23" y1="358.23" x2="161.23" y2="376.56"/><line class="cls-9" x1="157.05" y1="358.21" x2="157.05" y2="376.54"/><line class="cls-9" x1="152.87" y1="358.25" x2="152.88" y2="376.58"/><line class="cls-9" x1="148.18" y1="358.12" x2="148.18" y2="376.98"/><line class="cls-9" x1="144" y1="358.17" x2="144" y2="377.02"/><line class="cls-9" x1="139.82" y1="358.15" x2="139.82" y2="377"/><line class="cls-9" x1="135.64" y1="358.19" x2="135.64" y2="377.04"/><line class="cls-9" x1="131.48" y1="358.65" x2="131.48" y2="376.52"/><line class="cls-9" x1="126.39" y1="358.19" x2="126.39" y2="376.52"/><line class="cls-9" x1="122.21" y1="358.23" x2="122.22" y2="376.56"/><line class="cls-9" x1="118.03" y1="358.21" x2="118.03" y2="376.54"/><line class="cls-9" x1="113.86" y1="358.25" x2="113.86" y2="376.58"/><line class="cls-9" x1="109.16" y1="358.12" x2="109.16" y2="376.98"/><line class="cls-9" x1="104.98" y1="358.17" x2="104.99" y2="367.02"/><line class="cls-9" x1="170.5" y1="388.42" x2="170.5" y2="406.29"/><line class="cls-9" x1="165.41" y1="387.96" x2="165.41" y2="406.29"/><line class="cls-9" x1="161.24" y1="388.01" x2="161.24" y2="406.34"/><line class="cls-9" x1="157.05" y1="387.99" x2="157.05" y2="406.32"/><line class="cls-9" x1="152.88" y1="388.03" x2="152.88" y2="406.36"/><line class="cls-9" x1="148.18" y1="387.9" x2="148.18" y2="406.75"/><line class="cls-9" x1="144" y1="387.94" x2="144.01" y2="406.79"/><line class="cls-9" x1="139.82" y1="387.92" x2="139.82" y2="406.77"/><line class="cls-9" x1="135.64" y1="387.96" x2="135.65" y2="406.82"/><line class="cls-9" x1="131.48" y1="388.42" x2="131.48" y2="406.29"/><line class="cls-9" x1="126.39" y1="387.96" x2="126.4" y2="406.29"/><line class="cls-9" x1="122.22" y1="388.01" x2="122.22" y2="397.34"/><line class="cls-9" x1="170.49" y1="416.67" x2="170.49" y2="425.07"/><line class="cls-9" x1="165.41" y1="416.74" x2="165.41" y2="425.07"/><line class="cls-9" x1="161.23" y1="416.78" x2="161.23" y2="425.11"/><line class="cls-9" x1="157.05" y1="416.76" x2="157.05" y2="425.09"/><line class="cls-9" x1="152.87" y1="416.8" x2="152.87" y2="425.13"/><line class="cls-9" x1="148.17" y1="416.68" x2="148.18" y2="425.53"/><line class="cls-9" x1="144" y1="416.72" x2="144" y2="425.57"/><line class="cls-9" x1="139.82" y1="416.7" x2="139.82" y2="425.55"/><line class="cls-9" x1="135.64" y1="416.74" x2="135.64" y2="425.59"/><line class="cls-9" x1="131.47" y1="417.2" x2="131.47" y2="425.07"/><line class="cls-9" x1="126.39" y1="416.74" x2="126.39" y2="425.07"/><line class="cls-6" x1="403.02" y1="188.34" x2="403.02" y2="255.4"/><line class="cls-6" x1="433.07" y1="188.34" x2="432.9" y2="255.4"/><path class="cls-6" d="M470.9,262.55v3.74h-8.68l-8.42-6.76a1.25,1.25,0,0,1,.75-2.22l9.24-.25.86-69.57H454.1a.64.64,0,0,1-.64-.63l0-1.44a.64.64,0,0,1,.64-.66h13.08l0,9.19,57-.17v-7.89a1.35,1.35,0,0,1,1.28-1.35l.36,0a1.35,1.35,0,0,1,1.43,1.35v8.8a1.88,1.88,0,0,1-1.84,1.88l-9.88.22.17,10,9,.15-.34,90.72-.51,146.9"/><path class="cls-6" d="M396.67,154.46H525.46a1.78,1.78,0,0,1,1.78,1.78v10.22l-3.07,5.83a1.5,1.5,0,0,1-1.34.81H522a1.52,1.52,0,0,1-1.52-1.51v-7.81H477.28v7.92a1.4,1.4,0,0,1-1.4,1.4H475a1.4,1.4,0,0,1-1.4-1.4v-7.92H432.9v7.55a1.78,1.78,0,0,1-1.78,1.77h-1.87a1.77,1.77,0,0,1-1.78-1.75l-.1-7.57h-30l-.12,8.91a1.19,1.19,0,0,1-1.19,1.18h-.49a1.19,1.19,0,0,1-1.19-1.19V156.76A2.29,2.29,0,0,1,396.67,154.46Z"/><line class="cls-9" x1="515.62" y1="202.29" x2="524.43" y2="202.29"/><polyline class="cls-6" points="464.29 238.9 452.7 238.9 452.7 234.72 464.29 234.72"/><path class="cls-6" d="M454.26,243.08h9.56a0,0,0,0,1,0,0v7.38a0,0,0,0,1,0,0h-9.56a1.56,1.56,0,0,1-1.56-1.56v-4.27A1.56,1.56,0,0,1,454.26,243.08Z"/><rect class="cls-6" x="452.7" y="250.46" width="11.11" height="2.55"/><polyline class="cls-9" points="441.68 389.82 441.68 381.65 388.24 381.65 388.24 349.31 378.37 349.31 378.37 276.46 388.24 276.46 388.24 270.5 264.62 270.5 264.62 272.72"/><rect class="cls-9" x="241.45" y="273.36" width="24.17" height="24.17"/><rect class="cls-9" x="243.49" y="366.89" width="15.32" height="30.13"/><polyline class="cls-9" points="473.62 287.4 467.49 287.4 467.49 273.36 473.62 273.36"/><polyline class="cls-9" points="473.94 305.1 467.81 305.1 467.81 292.49 473.94 292.49"/><rect class="cls-9" x="467.81" y="330.16" width="6.13" height="6.13"/><polyline class="cls-9" points="473.62 326.55 467.49 326.55 467.49 309.23 473.62 309.23"/><polyline class="cls-9" points="473.62 340.17 467.49 340.17 467.49 355.66 473.62 355.66"/><rect class="cls-9" x="378.91" y="332.17" width="9.01" height="4.12"/><rect class="cls-9" x="379.17" y="340.17" width="8.74" height="5.02"/><path class="cls-9" d="M239.92,161.1v-2.81a3.83,3.83,0,0,1,3.83-3.83h132.1a3.83,3.83,0,0,1,3.83,3.83v26.27l-9.47-.13.09,13.1h1.45l-.09,15h6.57a1.45,1.45,0,0,1,1.45,1.45v14.22a1.46,1.46,0,0,1-1.45,1.46h-8.1L370,255.4h8.22a1.5,1.5,0,0,1,1.5,1.5v.6a1.5,1.5,0,0,1-1.47,1.5l-1.44,0"/><line class="cls-9" x1="217.62" y1="165.57" x2="222.22" y2="165.57"/><line class="cls-9" x1="217.62" y1="175.15" x2="222.22" y2="175.15"/><line class="cls-9" x1="217.62" y1="183.7" x2="222.22" y2="183.7"/><line class="cls-9" x1="217.62" y1="193.27" x2="222.22" y2="193.27"/><line class="cls-9" x1="217.62" y1="202.08" x2="222.22" y2="202.08"/><line class="cls-9" x1="217.62" y1="211.66" x2="222.22" y2="211.66"/><line class="cls-9" x1="217.62" y1="220.21" x2="222.22" y2="220.21"/><line class="cls-9" x1="217.62" y1="229.78" x2="222.22" y2="229.78"/><line class="cls-9" x1="253.28" y1="230.55" x2="244.54" y2="230.55"/><line class="cls-9" x1="252.99" y1="235.02" x2="244.61" y2="235.02"/><path class="cls-9" d="M246.46,211.66h7a0,0,0,0,1,0,0v14.43a0,0,0,0,1,0,0h-7a1.93,1.93,0,0,1-1.93-1.93V213.58A1.93,1.93,0,0,1,246.46,211.66Z"/><line class="cls-9" x1="214.39" y1="247.63" x2="214.39" y2="256.72"/><polyline class="cls-9" points="265.62 329.1 251.83 329.1 251.83 305.36 265.62 305.36"/><polyline class="cls-9" points="265.62 343.15 260.13 343.15 260.13 338.68 265.62 338.68"/><polyline class="cls-9" points="265.62 358.04 261.15 358.04 261.15 351.7 265.62 351.7"/><path class="cls-9" d="M208.43,483.91V425.66H128.26l-9.7-5.62L91,363.87s.51-47.49,0-58.72-9.7-28.77-9.7-28.77V246.93h134.3l2.55-9.7V150.42h22v10.73l5.1,13.27h8.69v64.85l-19.41.51S231.41,259,246.22,259h135V150.42"/><line class="cls-9" x1="370.24" y1="188.34" x2="379.36" y2="188.34"/><line class="cls-9" x1="370.27" y1="192.76" x2="379.36" y2="192.76"/><line class="cls-9" x1="371.75" y1="197.53" x2="379.36" y2="197.53"/><line class="cls-9" x1="371.75" y1="200.95" x2="379.15" y2="200.95"/><path class="cls-9" d="M371.75,206.21H379a.7.7,0,0,1,.7.7v.64a.7.7,0,0,1-.7.7h-7.29"/><line class="cls-9" x1="370.27" y1="233.61" x2="378.63" y2="233.61"/><line class="cls-9" x1="370.27" y1="238.83" x2="378.63" y2="238.83"/><line class="cls-9" x1="370.27" y1="242.73" x2="378.63" y2="242.73"/><line class="cls-9" x1="370.27" y1="246.95" x2="378.63" y2="246.95"/><line class="cls-9" x1="370.27" y1="251.68" x2="378.63" y2="251.68"/><line class="cls-9" x1="445.37" y1="381.44" x2="445.37" y2="390.23"/><line class="cls-9" x1="449.79" y1="381.44" x2="449.79" y2="390.23"/><line class="cls-9" x1="453.85" y1="381.44" x2="453.85" y2="390.23"/><line class="cls-9" x1="458.27" y1="381.44" x2="458.27" y2="390.23"/><line class="cls-9" x1="462.3" y1="381.44" x2="462.3" y2="390.23"/><polyline class="cls-9" points="466.73 390.23 466.73 381.44 469.19 381.44 469.19 390.23"/><rect class="cls-9" x="458.52" y="355.66" width="15.1" height="12.51"/><polyline class="cls-9" points="467.49 365.1 471.15 365.1 471.15 363 473.19 363"/><polyline class="cls-9" points="472.94 360.57 471.34 360.57 471.34 358.92 467.81 358.92"/><line class="cls-9" x1="471.15" y1="365.1" x2="471.15" y2="368.17"/><line class="cls-9" x1="470" y1="365.1" x2="470" y2="368.17"/><line class="cls-9" x1="469.19" y1="365.1" x2="469.19" y2="368.17"/><line class="cls-9" x1="467.96" y1="365.1" x2="467.96" y2="368.17"/><line class="cls-9" x1="471.18" y1="355.85" x2="471.18" y2="358.92"/><line class="cls-9" x1="470.04" y1="355.85" x2="470.04" y2="358.92"/><line class="cls-9" x1="469.23" y1="355.85" x2="469.23" y2="358.92"/><line class="cls-9" x1="467.99" y1="355.85" x2="467.99" y2="358.92"/></g><g id="Layer_10" data-name="Layer 10"><rect class="cls-2" x="550.65" y="122.46" width="258.89" height="362.3"/><rect class="cls-9" x="57.11" y="505.76" width="752.43" height="153.6"/><line class="cls-9" x1="57.11" y1="546.59" x2="809.54" y2="546.59"/><line class="cls-9" x1="143.46" y1="505.76" x2="143.46" y2="659.36"/><line class="cls-9" x1="291.55" y1="505.76" x2="291.55" y2="659.36"/><line class="cls-9" x1="422.25" y1="505.76" x2="419.69" y2="659.36"/><line class="cls-9" x1="549.94" y1="505.76" x2="549.94" y2="659.36"/><line class="cls-9" x1="650.32" y1="505.76" x2="650.32" y2="659.36"/><line class="cls-9" x1="57.11" y1="582.56" x2="809.54" y2="586.45"/><line class="cls-9" x1="57.11" y1="620.47" x2="809.54" y2="620.47"/></g><g id="buildings"><rect class="cls-10" x="255.75" y="182.38" width="47.66" height="61.96"/><polygon class="cls-10" points="367.07 244.34 309.19 244.34 309.19 232.25 311.83 232.08 311.58 224.51 310.42 224.03 311.46 222.94 310.3 221.61 308.19 221.61 308.19 197.19 311.19 197.19 311.19 183.38 367.07 183.38 367.07 244.34"/><rect class="cls-10" x="473.62" y="208.25" width="48.34" height="181.45"/><polygon class="cls-10" points="380.68 438.72 265.62 438.72 265.62 272.59 376.68 272.59 376.68 365.36 377.96 365.44 377.96 383.74 376.68 383.74 376.68 389.82 380.68 389.7 380.68 438.72"/><polygon class="cls-10" points="521.96 438.72 380.68 438.72 380.68 389.7 394.98 389.7 394.94 388.7 401.02 388.7 401.15 390.7 406.43 390.7 406.39 388.7 424 388.7 424.05 389.82 429.92 389.82 429.88 388.7 435.92 388.7 435.83 390.29 521.96 389.7 521.96 438.72"/><rect class="cls-6" x="399.92" y="270.38" width="18.21" height="5.96" rx="1.79"/><rect class="cls-6" x="429.28" y="270.38" width="18.21" height="5.96" rx="1.79"/><rect class="cls-6" x="393.92" y="255.4" width="18.21" height="3.57" rx="1.79"/><rect class="cls-6" x="423.79" y="255.4" width="18.21" height="3.57" rx="1.79"/><rect class="cls-6" x="393.92" y="222.21" width="18.21" height="3.57" rx="1.79"/><rect class="cls-6" x="423.79" y="222.21" width="18.21" height="3.57" rx="1.79"/><rect class="cls-6" x="394.09" y="184.76" width="18.21" height="3.57" rx="1.79"/><rect class="cls-6" x="423.96" y="184.76" width="18.21" height="3.57" rx="1.79"/><line class="cls-6" x1="97.11" y1="276.34" x2="209.96" y2="276.34"/><line class="cls-6" x1="105.28" y1="306.12" x2="209.96" y2="306.12"/><line class="cls-6" x1="105.28" y1="337.27" x2="209.96" y2="337.27"/><line class="cls-6" x1="105.28" y1="366.89" x2="209.96" y2="366.89"/><line class="cls-6" x1="122.13" y1="397.02" x2="209.96" y2="397.02"/><polygon class="cls-11" points="94.81 442.46 105.3 410.55 117.03 442.46 105.92 432.76 94.81 442.46"/><path class="cls-12" d="M251.83,305.36H248.9a3,3,0,0,0,2.93,3.06"/><path class="cls-12" d="M251.83,311.23H248.9a3,3,0,0,1,2.93-3.06"/><path class="cls-12" d="M251.83,323.23H248.9a3,3,0,0,0,2.93,3.06"/><path class="cls-12" d="M251.83,329.1H248.9a3,3,0,0,1,2.93-3.06"/><rect class="cls-11" x="261.15" y="406.72" width="4.47" height="7.49"/><path class="cls-12" d="M345.08,183.11v-1.46a1.48,1.48,0,0,0-1.54,1.46"/><path class="cls-12" d="M341.66,183.11v-1.46a1.48,1.48,0,0,1,1.54,1.46"/><line class="cls-10" x1="473.62" y1="294.76" x2="521.96" y2="295.53"/><circle class="cls-13" cx="252.61" cy="437.14" r="2.56"/><circle class="cls-13" cx="259.56" cy="437.14" r="2.56"/><line class="cls-14" x1="470" y1="390.23" x2="470" y2="438.72"/></g><g id="Text"><text class="cls-15" transform="translate(268.17 217.91)">2066</text><text class="cls-15" transform="translate(325.37 217.91)">2060</text><text class="cls-15" transform="translate(305.45 366.1)">2052</text><text class="cls-15" transform="translate(418.61 420.86)">2048</text><text class="cls-15" transform="translate(486.17 421.34)">2038</text><text class="cls-15" transform="translate(486.17 334.23)">2028</text><text class="cls-15" transform="translate(486.96 261.21)">2022</text><text class="cls-15" transform="translate(101.14 451.15)">N</text><text class="cls-16" transform="translate(81.28 117.19)">SITE PLAN &amp; P<tspan class="cls-17" x="103.82" y="0">R</tspan><tspan class="cls-18" x="113.56" y="0">OPE</tspan><tspan class="cls-19" x="144.39" y="0">R</tspan><tspan class="cls-20" x="154.24" y="0">T</tspan><tspan x="163.69" y="0">Y HIGHLIGH</tspan><tspan class="cls-21" x="252.81" y="0">T</tspan><tspan class="cls-18" x="261.64" y="0">S</tspan></text><text class="cls-16" transform="translate(554.17 117.19)">2022-2066 <tspan class="cls-22" x="83.21" y="0">w</tspan><tspan x="95.76" y="0">. 11</tspan><tspan class="cls-23" x="121.77" y="0">TH ST</tspan><tspan x="154.68" y="0">. UPLAN</tspan><tspan class="cls-24" x="214.8" y="0">D</tspan><tspan x="226.17" y="0">, </tspan><tspan class="cls-25" x="233.72" y="0">C</tspan><tspan x="244.23" y="0">A</tspan></text><text class="cls-26" transform="translate(77.98 533.64)"><tspan class="cls-27">A</tspan><tspan x="8.4" y="0">dd</tspan><tspan class="cls-28" x="24.19" y="0">r</tspan><tspan x="28.63" y="0">ess</tspan></text><text class="cls-26" transform="translate(179.94 533.64)"><tspan class="cls-29">T</tspan><tspan x="5.96" y="0">otal </tspan><tspan class="cls-30" x="31.3" y="0">F</tspan><tspan class="cls-31" x="37.69" y="0">ootage</tspan></text><text class="cls-26" transform="translate(336.79 533.64)"><tspan class="cls-32">L</tspan><tspan x="6.41" y="0">oading</tspan></text><text class="cls-26" transform="translate(431.94 533.64)"><tspan class="cls-33">W</tspan><tspan x="11.38" y="0">a</tspan><tspan class="cls-34" x="18.13" y="0">r</tspan><tspan x="22.57" y="0">ehouse Heig</tspan><tspan class="cls-35" x="95.52" y="0">h</tspan><tspan class="cls-31" x="103.23" y="0">t</tspan></text><text class="cls-26" transform="translate(578.51 533.63)"><tspan class="cls-36">A</tspan><tspan class="cls-35" x="8.27" y="0">v</tspan><tspan x="14.95" y="0">ailable</tspan></text><text class="cls-26" transform="translate(678.17 533.64)"><tspan class="cls-27">A</tspan><tspan x="8.4" y="0">dditional </tspan><tspan class="cls-30" x="63.85" y="0">F</tspan><tspan x="70.24" y="0">e</tspan><tspan class="cls-35" x="77.25" y="0">a</tspan><tspan x="83.94" y="0">tu</tspan><tspan class="cls-34" x="96.29" y="0">r</tspan><tspan x="100.73" y="0">es</tspan></text><text class="cls-26" transform="translate(328.9 573.34)">1 DH / 2 GL</text><text class="cls-26" transform="translate(467.83 573.34)">15<tspan class="cls-37" x="14.36" y="0">”</tspan><tspan class="cls-38" x="19.19" y="0">M</tspan><tspan x="30.62" y="0">in</tspan></text><text class="cls-26" transform="translate(578.83 573.34)">July 2019</text><text class="cls-26" transform="translate(196.34 573.34)">18,310</text><text class="cls-26" transform="translate(197.47 609.08)">16,238</text><text class="cls-26" transform="translate(328.9 609.08)">2 DH/ 1 GL</text><text class="cls-26" transform="translate(470.9 609.08)">21<tspan class="cls-39" x="14.36" y="0">”</tspan><tspan x="18.12" y="0"> </tspan><tspan class="cls-38" x="21.08" y="0">M</tspan><tspan x="32.51" y="0">in</tspan></text><text class="cls-26" transform="translate(577.81 609.08)">July 2019</text><text class="cls-26" transform="translate(198.53 644.83)">34,510</text><text class="cls-40" transform="translate(591.51 148.45)">P<tspan class="cls-41" x="9.58" y="0">R</tspan><tspan x="19.31" y="0">OPE</tspan><tspan class="cls-19" x="50.15" y="0">R</tspan><tspan class="cls-20" x="59.99" y="0">T</tspan><tspan x="69.44" y="0">Y HIGHLIGH</tspan><tspan class="cls-42" x="158.56" y="0">T</tspan><tspan x="167.4" y="0">S</tspan></text><text class="cls-26" transform="translate(572.58 178.1)"><tspan class="cls-43">I</tspan><tspan x="3.49" y="0">ndust</tspan><tspan class="cls-44" x="37.04" y="0">r</tspan><tspan class="cls-45" x="41.68" y="0">ial </tspan><tspan class="cls-46" x="57.97" y="0">F</tspan><tspan x="64.55" y="0">l</tspan><tspan class="cls-47" x="67.86" y="0">e</tspan><tspan class="cls-45" x="74.83" y="0">x units with </tspan><tspan class="cls-44" x="145.14" y="0">D</tspan><tspan x="154.52" y="0">ock </tspan><tspan x="0" y="16.8">high and G</tspan><tspan class="cls-48" x="64.04" y="16.8">r</tspan><tspan x="68.54" y="16.8">ade </tspan><tspan class="cls-32" x="93.17" y="16.8">L</tspan><tspan x="99.58" y="16.8">e</tspan><tspan class="cls-34" x="106.59" y="16.8">v</tspan><tspan x="113.19" y="16.8">el loading</tspan></text><text class="cls-26" transform="translate(572.85 215.29)"><tspan class="cls-49">F</tspan><tspan x="6.45" y="0">i</tspan><tspan class="cls-28" x="9.73" y="0">r</tspan><tspan x="14.17" y="0">e Sp</tspan><tspan class="cls-44" x="39.02" y="0">r</tspan><tspan x="43.65" y="0">in</tspan><tspan class="cls-50" x="54.7" y="0">k</tspan><tspan x="61.5" y="0">ler</tspan></text><text class="cls-26" transform="translate(572.56 238.9)"><tspan class="cls-38">M</tspan><tspan class="cls-45" x="11.42" y="0">inimum</tspan><tspan class="cls-51" x="56.81" y="0"> </tspan><tspan class="cls-52" x="59.28" y="0">W</tspan><tspan x="71.05" y="0">he</tspan><tspan class="cls-34" x="85.83" y="0">r</tspan><tspan x="90.27" y="0">ehouse </tspan><tspan class="cls-53" x="135.98" y="0">c</tspan><tspan x="142.17" y="0" xml:space="preserve">eiling  Heig</tspan><tspan class="cls-35" x="207.81" y="0">h</tspan><tspan x="215.53" y="0">ts </tspan><tspan x="0" y="16.8">up </tspan><tspan class="cls-54" x="18.65" y="16.8">t</tspan><tspan class="cls-31" x="23.2" y="16.8">o 21</tspan><tspan class="cls-55" x="48.21" y="16.8">’</tspan></text><text class="cls-26" transform="translate(573.03 278.29)"><tspan class="cls-43">I</tspan><tspan x="3.49" y="0">nstitutionally </tspan><tspan class="cls-56" x="83.34" y="0">o</tspan><tspan x="90.93" y="0">wned and </tspan><tspan x="0" y="16.8">managed </tspan><tspan class="cls-56" x="58.65" y="16.8">b</tspan><tspan x="66.51" y="16.8">y O</tspan><tspan class="cls-34" x="85.72" y="16.8">r</tspan><tspan x="90.16" y="16.8">o </tspan><tspan class="cls-56" x="100.81" y="16.8">C</tspan><tspan x="108.83" y="16.8">apital </tspan><tspan class="cls-27" x="144.48" y="16.8">A</tspan><tspan class="cls-31" x="152.88" y="16.8">dvisors</tspan></text><text class="cls-26" transform="translate(573.09 319.7)"><tspan class="cls-57">C</tspan><tspan class="cls-31" x="7.97" y="0">o</tspan><tspan class="cls-58" x="15.65" y="0">n</tspan><tspan x="23.24" y="0">vinie</tspan><tspan class="cls-35" x="51.31" y="0">n</tspan><tspan x="59.02" y="0">tly loc</tspan><tspan class="cls-59" x="93.79" y="0">a</tspan><tspan class="cls-54" x="100.48" y="0">t</tspan><tspan class="cls-31" x="105.03" y="0">ed near the </tspan><tspan x="0" y="16.8">210 and 10 f</tspan><tspan class="cls-28" x="71.31" y="16.8">r</tspan><tspan x="75.75" y="16.8">ee</tspan><tspan class="cls-35" x="89.78" y="16.8">w</tspan><tspan class="cls-60" x="100.03" y="16.8">a</tspan><tspan class="cls-54" x="106.66" y="16.8">y</tspan><tspan x="113.17" y="16.8">s</tspan></text><text class="cls-26" transform="translate(572.39 358.74)">Nume<tspan class="cls-34" x="35.62" y="0">r</tspan><tspan x="40.05" y="0">ous </tspan><tspan class="cls-44" x="63.97" y="0">R</tspan><tspan x="71.55" y="0">etail </tspan><tspan class="cls-61" x="99.5" y="0">A</tspan><tspan class="cls-31" x="108.02" y="0">nemeties in the a</tspan><tspan class="cls-34" x="208.08" y="0">r</tspan><tspan x="212.52" y="0">ea</tspan></text><circle class="cls-5" cx="564.41" cy="175.67" r="1.43"/><circle class="cls-5" cx="563.83" cy="212.41" r="1.43"/><circle class="cls-5" cx="563.83" cy="234.72" r="1.43"/><circle class="cls-5" cx="563.83" cy="275.28" r="1.43"/><circle class="cls-5" cx="563.83" cy="316.09" r="1.43"/><circle class="cls-5" cx="563.83" cy="354.91" r="1.43"/><text class="cls-62" transform="translate(613.43 382.98)">ONT <tspan class="cls-63" x="24.67" y="0">A</tspan><tspan class="cls-64" x="31.98" y="0">ir</tspan><tspan class="cls-65" x="38.71" y="0">P</tspan><tspan x="44.8" y="0">o</tspan><tspan class="cls-66" x="51.38" y="0">r</tspan><tspan x="55.6" y="0">t</tspan></text><text class="cls-62" transform="translate(613.66 411.32)"><tspan class="cls-67">C</tspan><tspan x="6.88" y="0">able </tspan><tspan class="cls-47" x="30.88" y="0">A</tspan><tspan x="38.18" y="0">i</tspan><tspan class="cls-68" x="40.99" y="0">r</tspan><tspan x="44.96" y="0">po</tspan><tspan class="cls-66" x="58.38" y="0">r</tspan><tspan x="62.59" y="0">t</tspan></text><text class="cls-62" transform="translate(613.9 438.89)">UPS HUB</text><text class="cls-62" transform="translate(613.13 466.47)">Nea<tspan class="cls-69" x="19.69" y="0">r</tspan><tspan x="23.5" y="0">est </tspan><tspan class="cls-70" x="40.78" y="0">F</tspan><tspan class="cls-71" x="46.31" y="0">r</tspan><tspan x="50.11" y="0">ee</tspan><tspan class="cls-72" x="62.14" y="0">w</tspan><tspan class="cls-73" x="70.92" y="0">a</tspan><tspan class="cls-74" x="76.61" y="0">y Exit</tspan></text><text class="cls-75" transform="translate(730 382.98)">7 miles</text><text class="cls-75" transform="translate(730 411.32)">1 mile</text><text class="cls-75" transform="translate(730.36 438.89)">4 miles</text><text class="cls-75" transform="translate(730.03 466.47)">1 mile</text></g><g id="icons"><path class="cls-76" d="M589.61,380.08l2.26,6.26a.67.67,0,0,0,1.11.24l.5-.52a.68.68,0,0,0,.18-.53l-.72-8.22,4-3.63a1,1,0,0,0,.07-1.3l-.15-.18a1,1,0,0,0-1.34-.14l-4.29,3.44-7-2.84a.67.67,0,0,0-.64.07l-.64.45a.66.66,0,0,0,0,1.07l5.2,3.88L584.89,381l-1.63-.32a.48.48,0,0,0-.7-.06l-.41.37a.5.5,0,0,0-.06.68l3.11,3.74a.57.57,0,0,0,.8.07l.28-.25a.56.56,0,0,0,.06-.77l0-1.81Z"/><line class="cls-76" x1="581.49" y1="382.74" x2="577.54" y2="386"/><line class="cls-76" x1="582.51" y1="384.12" x2="574.3" y2="390.68"/><line class="cls-76" x1="583.43" y1="385.66" x2="578.41" y2="389.59"/><line class="cls-76" x1="577.05" y1="386.27" x2="575.79" y2="387.25"/><line class="cls-76" x1="578" y1="389.85" x2="576.68" y2="390.91"/><rect class="cls-76" x="580.11" y="396" width="9.49" height="3.89" rx="1.18"/><rect class="cls-76" x="581.98" y="399.89" width="5.66" height="2.11"/><path class="cls-76" d="M580.37,402h8.87a1.28,1.28,0,0,1,1.28,1.28V404a0,0,0,0,1,0,0H579.09a0,0,0,0,1,0,0v-.77A1.28,1.28,0,0,1,580.37,402Z"/><rect class="cls-76" x="579.09" y="404.04" width="11.43" height="8.74"/><path class="cls-76" d="M574.27,404.93h4.56a0,0,0,0,1,0,0v2a0,0,0,0,1,0,0H573a0,0,0,0,1,0,0v-.73A1.24,1.24,0,0,1,574.27,404.93Z"/><rect class="cls-76" x="573.02" y="406.91" width="5.81" height="5.81"/><line class="cls-76" x1="575.93" y1="407.53" x2="575.93" y2="412.72"/><path class="cls-76" d="M590.51,404.93h4.56a1.24,1.24,0,0,1,1.24,1.24v.73a0,0,0,0,1,0,0h-5.81a0,0,0,0,1,0,0v-2A0,0,0,0,1,590.51,404.93Z"/><rect class="cls-76" x="590.51" y="406.91" width="5.81" height="5.81"/><line class="cls-76" x1="593.42" y1="407.53" x2="593.42" y2="412.72"/><path class="cls-76" d="M581.83,406.91h5.94a.7.7,0,0,1,.7.7v5.11a0,0,0,0,1,0,0h-7.34a0,0,0,0,1,0,0v-5.11A.7.7,0,0,1,581.83,406.91Z"/><rect class="cls-76" x="573.02" y="412.72" width="23.3" height="2.23"/><polygon class="cls-5" points="581.35 464.81 574.25 470.11 572.49 468.81 579.6 463.49 581.35 464.81"/><polygon class="cls-5" points="583.79 466.59 576.68 471.9 574.92 470.6 582.02 465.29 583.79 466.59"/><polygon class="cls-5" points="591.54 471.84 572.4 457.73 574.15 456.41 593.29 470.53 591.54 471.84"/><path class="cls-77" d="M573.46,457.78c4.12,3,4.15,8,.06,11.05"/><path class="cls-77" d="M591.39,471a13.23,13.23,0,0,0-14.87,0"/><polygon class="cls-5" points="586.37 461.06 593.46 455.75 591.69 454.45 584.58 459.76 586.37 461.06"/><polygon class="cls-5" points="588.78 462.86 595.89 457.54 594.12 456.24 587.01 461.55 588.78 462.86"/><polygon class="cls-5" points="595.9 468.57 576.77 454.46 575.01 455.77 594.15 469.88 595.9 468.57"/><path class="cls-77" d="M576.85,455.25a13.23,13.23,0,0,0,14.87,0"/><path class="cls-77" d="M594.81,468.47c-4.13-3-4.15-8-.06-11"/></g></svg>