<svg xmlns="http://www.w3.org/2000/svg" viewBox="0 0 753.6 558.12"><defs><style>.cls-1{fill:#4f5756;}.cls-2{fill:#666766;}.cls-14,.cls-15,.cls-3{fill:#231f20;}.cls-13,.cls-25,.cls-4{fill:#fff;}.cls-10,.cls-11,.cls-12,.cls-5,.cls-75,.cls-76,.cls-8,.cls-9{fill:none;}.cls-12,.cls-5{stroke:#7e7173;}.cls-10,.cls-11,.cls-12,.cls-13,.cls-5,.cls-61,.cls-75,.cls-76,.cls-8,.cls-9{stroke-miterlimit:10;}.cls-14,.cls-6,.cls-61,.cls-74{font-size:12px;}.cls-6{fill:#7e7173;}.cls-14,.cls-15,.cls-25,.cls-39,.cls-6,.cls-61,.cls-74{font-family:MyriadPro-Regular, Myriad Pro;}.cls-7{letter-spacing:0.02em;}.cls-8{stroke:#7d7173;}.cls-10,.cls-11,.cls-13,.cls-9{stroke:#231f20;}.cls-9{stroke-width:1.5px;}.cls-11,.cls-12,.cls-61,.cls-75{stroke-width:0.5px;}.cls-15,.cls-39{font-size:18px;}.cls-16{letter-spacing:0em;}.cls-17{letter-spacing:0em;}.cls-18{letter-spacing:0.01em;}.cls-19{letter-spacing:0.03em;}.cls-20{letter-spacing:-0.01em;}.cls-21{letter-spacing:-0.04em;}.cls-22,.cls-25{font-size:14px;}.cls-23{letter-spacing:-0.03em;}.cls-24{letter-spacing:0em;}.cls-26{letter-spacing:-0.01em;}.cls-27{letter-spacing:-0.01em;}.cls-28{letter-spacing:-0.07em;}.cls-29{letter-spacing:-0.03em;}.cls-30{letter-spacing:0em;}.cls-31{letter-spacing:-0.01em;}.cls-32{letter-spacing:-0.03em;}.cls-33{letter-spacing:-0.01em;}.cls-34{letter-spacing:0em;}.cls-35{letter-spacing:-0.02em;}.cls-36{letter-spacing:-0.01em;}.cls-37{letter-spacing:0.01em;}.cls-38{letter-spacing:-0.09em;}.cls-39,.cls-61,.cls-74{fill:#fce2ea;}.cls-40{letter-spacing:0em;}.cls-41{letter-spacing:-0.01em;}.cls-42{letter-spacing:0.01em;}.cls-43{letter-spacing:0em;}.cls-44{letter-spacing:0em;}.cls-45{letter-spacing:-0.02em;}.cls-46{letter-spacing:0em;}.cls-47{letter-spacing:-0.01em;}.cls-48{letter-spacing:-0.03em;}.cls-49{letter-spacing:0.02em;}.cls-50{letter-spacing:-0.04em;}.cls-51{letter-spacing:0em;}.cls-52{letter-spacing:-0.01em;}.cls-53{letter-spacing:-0.01em;}.cls-54{letter-spacing:-0.09em;}.cls-55{letter-spacing:-0.01em;}.cls-56{letter-spacing:-0.01em;}.cls-57{letter-spacing:-0.01em;}.cls-58{letter-spacing:0em;}.cls-59{letter-spacing:-0.01em;}.cls-60{letter-spacing:0em;}.cls-61{stroke:#fde8ed;}.cls-62{letter-spacing:0em;}.cls-63{letter-spacing:0em;}.cls-64{letter-spacing:-0.02em;}.cls-65{letter-spacing:0.02em;}.cls-66{letter-spacing:-0.01em;}.cls-67{letter-spacing:0em;}.cls-68{letter-spacing:-0.01em;}.cls-69{letter-spacing:-0.03em;}.cls-70{letter-spacing:-0.01em;}.cls-71{letter-spacing:0em;}.cls-72{letter-spacing:-0.01em;}.cls-73{letter-spacing:0em;}.cls-75,.cls-76{stroke:#fff;}</style></defs><title>2022 upland</title><g id="Layer_2" data-name="Layer 2"><g id="Layer_9" data-name="Layer 9"><rect class="cls-1" x="0.59" y="404.52" width="752.43" height="153.6"/><rect class="cls-2" x="1.16" y="404.42" width="752.43" height="42.33"/></g><g id="Layer_4" data-name="Layer 4"><polyline class="cls-3" points="48.78 308.43 61.52 341.75 49.4 330.64 48.78 308.43"/><polyline class="cls-4" points="49.4 330.64 48.78 307.79 38.29 340.34 49.4 330.64"/></g><g id="Layer_5" data-name="Layer 5"><rect class="cls-5" x="0.5" y="48.3" width="483.33" height="311.49"/><polygon class="cls-5" points="494.04 48.3 0.5 48.3 0.5 35.51 0.5 22.73 494.04 22.73 494.04 48.3"/><text class="cls-6" transform="translate(230.91 41.51)">11TH STRE<tspan class="cls-7" x="52.88" y="0">E</tspan><tspan x="58.98" y="0">T</tspan></text></g><g id="Parking"><line class="cls-8" x1="153.44" y1="285.87" x2="153.44" y2="304.6"/><line class="cls-8" x1="153.44" y1="255.92" x2="153.44" y2="273.96"/><line class="cls-8" x1="153.44" y1="225.79" x2="153.44" y2="244.17"/><line class="cls-8" x1="153.44" y1="196.51" x2="153.44" y2="214.38"/><line class="cls-8" x1="153.44" y1="183.97" x2="153.44" y2="184.26"/><line class="cls-8" x1="153.44" y1="165.83" x2="153.44" y2="183.97"/><line class="cls-8" x1="153.44" y1="144.77" x2="153.44" y2="154.34"/><line class="cls-8" x1="148.36" y1="314.47" x2="148.36" y2="323.49"/><line class="cls-8" x1="148.36" y1="285.87" x2="148.36" y2="304.6"/><line class="cls-8" x1="148.36" y1="255.92" x2="148.36" y2="273.96"/><line class="cls-8" x1="148.36" y1="225.79" x2="148.36" y2="244.17"/><line class="cls-8" x1="148.36" y1="196.06" x2="148.36" y2="214.38"/><line class="cls-8" x1="148.36" y1="166.05" x2="148.36" y2="184.26"/><line class="cls-8" x1="148.36" y1="144.77" x2="148.36" y2="154.6"/><line class="cls-8" x1="144.18" y1="314.51" x2="144.18" y2="323.53"/><line class="cls-8" x1="144.18" y1="285.92" x2="144.18" y2="304.64"/><line class="cls-8" x1="144.18" y1="255.96" x2="144.18" y2="274"/><line class="cls-8" x1="144.18" y1="225.83" x2="144.18" y2="244.21"/><line class="cls-8" x1="144.18" y1="196.1" x2="144.18" y2="214.43"/><line class="cls-8" x1="144.18" y1="166.05" x2="144.18" y2="184.3"/><line class="cls-8" x1="144.18" y1="144.81" x2="144.18" y2="154.6"/><line class="cls-8" x1="140" y1="314.49" x2="140" y2="323.51"/><line class="cls-8" x1="140" y1="285.9" x2="140" y2="304.62"/><line class="cls-8" x1="140" y1="255.94" x2="140" y2="273.98"/><line class="cls-8" x1="140" y1="225.81" x2="140" y2="244.19"/><line class="cls-8" x1="140" y1="196.08" x2="140" y2="214.41"/><line class="cls-8" x1="140" y1="166.05" x2="140" y2="184.28"/><line class="cls-8" x1="140" y1="144.79" x2="140" y2="154.6"/><line class="cls-8" x1="135.82" y1="314.53" x2="135.82" y2="323.56"/><line class="cls-8" x1="135.82" y1="285.94" x2="135.82" y2="304.66"/><line class="cls-8" x1="135.82" y1="255.98" x2="135.82" y2="274.02"/><line class="cls-8" x1="135.82" y1="225.85" x2="135.82" y2="244.24"/><line class="cls-8" x1="135.82" y1="196.12" x2="135.82" y2="214.45"/><line class="cls-8" x1="135.82" y1="166.05" x2="135.82" y2="184.32"/><line class="cls-8" x1="135.82" y1="144.83" x2="135.82" y2="154.6"/><line class="cls-8" x1="131.13" y1="314.4" x2="131.13" y2="323.95"/><line class="cls-8" x1="131.13" y1="286.33" x2="131.13" y2="305.06"/><line class="cls-8" x1="131.13" y1="256.37" x2="131.13" y2="274.42"/><line class="cls-8" x1="131.13" y1="226.25" x2="131.13" y2="244.63"/><line class="cls-8" x1="131.12" y1="195.99" x2="131.13" y2="214.84"/><line class="cls-8" x1="131.13" y1="166.05" x2="131.13" y2="184.26"/><line class="cls-8" x1="131.13" y1="145.23" x2="131.13" y2="154.6"/><line class="cls-8" x1="126.95" y1="314.44" x2="126.95" y2="323.99"/><line class="cls-8" x1="126.95" y1="286.37" x2="126.95" y2="305.1"/><line class="cls-8" x1="126.95" y1="256.42" x2="126.95" y2="274.46"/><line class="cls-8" x1="126.95" y1="226.29" x2="126.95" y2="244.67"/><line class="cls-8" x1="126.95" y1="196.03" x2="126.95" y2="214.88"/><line class="cls-8" x1="126.95" y1="166.05" x2="126.95" y2="184.3"/><line class="cls-8" x1="126.95" y1="145.27" x2="126.95" y2="154.6"/><line class="cls-8" x1="122.77" y1="314.42" x2="122.77" y2="323.97"/><line class="cls-8" x1="122.77" y1="286.35" x2="122.77" y2="305.08"/><line class="cls-8" x1="122.77" y1="256.4" x2="122.77" y2="274.44"/><line class="cls-8" x1="122.77" y1="226.27" x2="122.77" y2="244.65"/><line class="cls-8" x1="122.77" y1="196.01" x2="122.77" y2="214.86"/><line class="cls-8" x1="122.77" y1="166.05" x2="122.77" y2="184.28"/><line class="cls-8" x1="122.77" y1="145.25" x2="122.77" y2="154.6"/><line class="cls-8" x1="118.59" y1="314.46" x2="118.59" y2="323.01"/><line class="cls-8" x1="118.59" y1="286.4" x2="118.59" y2="305.12"/><line class="cls-8" x1="118.59" y1="256.44" x2="118.59" y2="274.48"/><line class="cls-8" x1="118.59" y1="226.31" x2="118.59" y2="244.69"/><line class="cls-8" x1="118.59" y1="196.06" x2="118.59" y2="214.91"/><line class="cls-8" x1="118.59" y1="183.97" x2="118.59" y2="184.32"/><line class="cls-8" x1="118.59" y1="166.05" x2="118.59" y2="183.97"/><line class="cls-8" x1="118.59" y1="145.29" x2="118.59" y2="154.6"/><line class="cls-8" x1="114.53" y1="145.45" x2="114.53" y2="155.02"/><line class="cls-8" x1="109.45" y1="145.45" x2="109.45" y2="155.28"/><line class="cls-8" x1="105.27" y1="145.49" x2="105.27" y2="155.28"/><line class="cls-8" x1="101.09" y1="145.47" x2="101.09" y2="155.28"/><line class="cls-8" x1="96.91" y1="145.51" x2="96.91" y2="155.28"/><line class="cls-8" x1="92.22" y1="144.91" x2="92.22" y2="155.28"/><line class="cls-8" x1="88.04" y1="144.95" x2="88.04" y2="155.28"/><line class="cls-8" x1="83.86" y1="144.93" x2="83.86" y2="155.28"/><line class="cls-8" x1="79.68" y1="144.97" x2="79.68" y2="155.28"/><line class="cls-8" x1="75.91" y1="145.45" x2="75.91" y2="155.02"/><line class="cls-8" x1="70.83" y1="145.45" x2="70.83" y2="155.28"/><line class="cls-8" x1="66.65" y1="145.49" x2="66.65" y2="155.28"/><line class="cls-8" x1="62.47" y1="145.47" x2="62.47" y2="155.28"/><line class="cls-8" x1="58.29" y1="145.51" x2="58.29" y2="155.28"/><line class="cls-8" x1="53.6" y1="144.91" x2="53.6" y2="155.28"/><line class="cls-8" x1="49.42" y1="144.95" x2="49.42" y2="155.28"/><line class="cls-8" x1="45.24" y1="144.93" x2="45.24" y2="155.28"/><line class="cls-8" x1="41.06" y1="144.97" x2="41.06" y2="155.28"/><line class="cls-8" x1="36.44" y1="144.95" x2="36.44" y2="155.28"/><line class="cls-8" x1="32.26" y1="144.93" x2="32.26" y2="155.28"/><line class="cls-8" x1="28.08" y1="144.97" x2="28.08" y2="155.28"/><line class="cls-8" x1="114.29" y1="166.64" x2="114.29" y2="184.51"/><line class="cls-8" x1="109.21" y1="166.18" x2="109.21" y2="184.51"/><line class="cls-8" x1="105.03" y1="166.23" x2="105.03" y2="184.55"/><line class="cls-8" x1="100.85" y1="166.2" x2="100.85" y2="184.53"/><line class="cls-8" x1="96.67" y1="166.25" x2="96.67" y2="184.58"/><line class="cls-8" x1="91.97" y1="166.12" x2="92" y2="184.51"/><line class="cls-8" x1="87.8" y1="166.16" x2="87.82" y2="184.55"/><line class="cls-8" x1="83.61" y1="166.14" x2="83.64" y2="184.53"/><line class="cls-8" x1="79.44" y1="166.18" x2="79.46" y2="184.58"/><line class="cls-8" x1="75.27" y1="166.64" x2="75.27" y2="184.51"/><line class="cls-8" x1="70.19" y1="166.18" x2="70.19" y2="184.51"/><line class="cls-8" x1="66.01" y1="166.23" x2="66.01" y2="184.55"/><line class="cls-8" x1="61.83" y1="166.2" x2="61.83" y2="184.53"/><line class="cls-8" x1="57.65" y1="166.25" x2="57.65" y2="184.58"/><line class="cls-8" x1="52.96" y1="166.12" x2="52.98" y2="184.51"/><line class="cls-8" x1="48.78" y1="166.16" x2="48.8" y2="184.55"/><line class="cls-8" x1="44.6" y1="166.14" x2="44.62" y2="184.53"/><line class="cls-8" x1="40.42" y1="166.18" x2="40.44" y2="184.58"/><line class="cls-8" x1="113.98" y1="196.6" x2="113.98" y2="214.47"/><line class="cls-8" x1="108.89" y1="196.14" x2="108.89" y2="214.47"/><line class="cls-8" x1="104.71" y1="196.18" x2="104.71" y2="214.51"/><line class="cls-8" x1="100.53" y1="196.16" x2="100.53" y2="214.49"/><line class="cls-8" x1="96.35" y1="196.2" x2="96.36" y2="214.53"/><line class="cls-8" x1="91.66" y1="196.08" x2="91.66" y2="214.93"/><line class="cls-8" x1="87.48" y1="196.12" x2="87.48" y2="214.97"/><line class="cls-8" x1="83.3" y1="196.1" x2="83.3" y2="214.95"/><line class="cls-8" x1="79.12" y1="196.14" x2="79.12" y2="214.99"/><line class="cls-8" x1="74.96" y1="196.6" x2="74.96" y2="214.47"/><line class="cls-8" x1="69.87" y1="196.14" x2="69.87" y2="214.47"/><line class="cls-8" x1="65.69" y1="196.18" x2="65.7" y2="214.51"/><line class="cls-8" x1="61.51" y1="196.16" x2="61.51" y2="214.49"/><line class="cls-8" x1="57.34" y1="196.2" x2="57.34" y2="214.53"/><line class="cls-8" x1="52.64" y1="196.08" x2="52.64" y2="214.93"/><line class="cls-8" x1="48.46" y1="196.12" x2="48.47" y2="214.97"/><line class="cls-8" x1="114.3" y1="226.04" x2="114.3" y2="243.92"/><line class="cls-8" x1="109.21" y1="225.59" x2="109.21" y2="243.92"/><line class="cls-8" x1="105.03" y1="225.63" x2="105.03" y2="243.96"/><line class="cls-8" x1="100.85" y1="225.61" x2="100.85" y2="243.94"/><line class="cls-8" x1="96.67" y1="225.65" x2="96.67" y2="243.98"/><line class="cls-8" x1="91.98" y1="225.52" x2="91.98" y2="244.37"/><line class="cls-8" x1="87.8" y1="225.57" x2="87.8" y2="244.42"/><line class="cls-8" x1="83.62" y1="225.54" x2="83.62" y2="244.4"/><line class="cls-8" x1="79.44" y1="225.59" x2="79.44" y2="244.44"/><line class="cls-8" x1="75.28" y1="226.04" x2="75.28" y2="243.92"/><line class="cls-8" x1="70.19" y1="225.59" x2="70.19" y2="243.92"/><line class="cls-8" x1="66.01" y1="225.63" x2="66.02" y2="243.96"/><line class="cls-8" x1="61.83" y1="225.61" x2="61.83" y2="243.94"/><line class="cls-8" x1="57.66" y1="225.65" x2="57.66" y2="243.98"/><line class="cls-8" x1="52.96" y1="225.52" x2="52.96" y2="244.37"/><line class="cls-8" x1="48.78" y1="225.57" x2="48.78" y2="244.42"/><line class="cls-5" x1="343.19" y1="178.56" x2="361.57" y2="178.56"/><line class="cls-5" x1="343.19" y1="183.65" x2="361.57" y2="183.65"/><line class="cls-5" x1="343.23" y1="187.83" x2="361.61" y2="187.83"/><line class="cls-5" x1="343.21" y1="192.01" x2="361.59" y2="192.01"/><line class="cls-5" x1="343.25" y1="196.18" x2="361.63" y2="196.18"/><line class="cls-5" x1="343.65" y1="200.88" x2="362.03" y2="200.88"/><line class="cls-5" x1="343.69" y1="205.06" x2="362.07" y2="205.06"/><line class="cls-5" x1="343.67" y1="209.24" x2="362.05" y2="209.24"/><line class="cls-5" x1="343.71" y1="213.42" x2="362.09" y2="213.42"/><line class="cls-5" x1="343.44" y1="217.71" x2="361.32" y2="217.71"/><line class="cls-5" x1="342.99" y1="222.8" x2="361.32" y2="222.8"/><line class="cls-8" x1="322.59" y1="177.89" x2="332.98" y2="177.89"/><line class="cls-8" x1="322.59" y1="182.97" x2="332.98" y2="182.97"/><line class="cls-8" x1="322.63" y1="187.15" x2="333.02" y2="187.15"/><line class="cls-8" x1="322.61" y1="191.33" x2="333" y2="191.33"/><line class="cls-8" x1="322.66" y1="195.51" x2="333.04" y2="195.51"/><line class="cls-5" x1="322.05" y1="200.21" x2="333.43" y2="200.21"/><line class="cls-5" x1="322.09" y1="204.38" x2="333.48" y2="204.38"/><line class="cls-5" x1="322.07" y1="208.56" x2="333.45" y2="208.56"/><line class="cls-5" x1="322.11" y1="212.74" x2="333.5" y2="212.74"/><line class="cls-8" x1="322.85" y1="217.04" x2="332.72" y2="217.04"/><line class="cls-8" x1="322.39" y1="222.12" x2="332.72" y2="222.12"/><line class="cls-8" x1="322.39" y1="225.71" x2="332.72" y2="225.71"/><line class="cls-5" x1="343.03" y1="226.98" x2="361.36" y2="226.97"/><line class="cls-5" x1="343.01" y1="231.16" x2="361.34" y2="231.16"/><line class="cls-5" x1="343.05" y1="235.33" x2="361.38" y2="235.33"/><line class="cls-5" x1="342.92" y1="240.03" x2="361.77" y2="240.03"/><line class="cls-5" x1="342.96" y1="244.21" x2="361.82" y2="244.21"/><line class="cls-5" x1="342.94" y1="248.39" x2="361.79" y2="248.39"/><line class="cls-5" x1="342.99" y1="252.57" x2="361.84" y2="252.56"/><line class="cls-5" x1="343.44" y1="256.73" x2="361.32" y2="256.73"/><line class="cls-5" x1="372.55" y1="178.63" x2="390.93" y2="178.63"/><line class="cls-5" x1="372.55" y1="183.72" x2="390.93" y2="183.72"/><line class="cls-5" x1="372.59" y1="187.89" x2="390.98" y2="187.89"/><line class="cls-5" x1="372.57" y1="192.07" x2="390.95" y2="192.07"/><line class="cls-5" x1="372.61" y1="196.25" x2="391" y2="196.25"/><line class="cls-5" x1="373.01" y1="200.95" x2="391.39" y2="200.95"/><line class="cls-5" x1="373.05" y1="205.12" x2="391.43" y2="205.12"/><line class="cls-5" x1="373.03" y1="209.3" x2="391.41" y2="209.3"/><line class="cls-5" x1="373.07" y1="213.48" x2="391.45" y2="213.48"/><line class="cls-5" x1="372.8" y1="217.78" x2="390.68" y2="217.78"/><line class="cls-5" x1="372.35" y1="222.86" x2="390.68" y2="222.86"/><line class="cls-5" x1="372.39" y1="227.04" x2="390.72" y2="227.04"/><line class="cls-5" x1="372.37" y1="231.22" x2="390.7" y2="231.22"/><line class="cls-5" x1="372.41" y1="235.4" x2="390.74" y2="235.4"/><line class="cls-5" x1="372.28" y1="240.1" x2="391.13" y2="240.09"/><line class="cls-5" x1="372.33" y1="244.27" x2="391.18" y2="244.27"/><line class="cls-5" x1="372.31" y1="248.46" x2="391.16" y2="248.45"/><line class="cls-5" x1="372.35" y1="252.63" x2="391.2" y2="252.63"/><line class="cls-5" x1="372.8" y1="256.8" x2="390.68" y2="256.8"/><line class="cls-5" x1="367.78" y1="89.3" x2="386.17" y2="89.3"/><line class="cls-5" x1="367.78" y1="94.38" x2="386.17" y2="94.38"/><line class="cls-5" x1="367.83" y1="98.56" x2="386.21" y2="98.56"/><line class="cls-5" x1="367.8" y1="102.74" x2="386.19" y2="102.74"/><line class="cls-5" x1="367.85" y1="106.92" x2="386.23" y2="106.92"/><line class="cls-5" x1="367.36" y1="111.36" x2="385.74" y2="111.36"/><line class="cls-5" x1="367.28" y1="115.79" x2="385.67" y2="115.79"/><line class="cls-5" x1="396.89" y1="89.56" x2="408.27" y2="89.56"/><line class="cls-5" x1="396.89" y1="94.65" x2="408.27" y2="94.65"/><line class="cls-5" x1="396.93" y1="98.82" x2="408.32" y2="98.82"/><line class="cls-5" x1="396.91" y1="103.01" x2="407.29" y2="103.01"/><line class="cls-5" x1="396.95" y1="107.18" x2="407.34" y2="107.18"/><line class="cls-5" x1="396.46" y1="111.62" x2="407.85" y2="111.62"/><line class="cls-5" x1="396.39" y1="116.05" x2="407.77" y2="116.05"/><line class="cls-5" x1="396.75" y1="120.19" x2="408.13" y2="120.19"/><line class="cls-8" x1="188.52" y1="75.89" x2="196.9" y2="75.89"/><line class="cls-8" x1="188.52" y1="80.97" x2="196.9" y2="80.97"/><line class="cls-8" x1="188.56" y1="85.15" x2="196.94" y2="85.15"/><line class="cls-8" x1="188.54" y1="89.33" x2="196.92" y2="89.33"/><line class="cls-8" x1="188.58" y1="93.51" x2="196.97" y2="93.51"/><line class="cls-8" x1="188.09" y1="97.95" x2="196.48" y2="97.95"/><line class="cls-8" x1="188.02" y1="102.38" x2="196.4" y2="102.38"/><path class="cls-8" d="M196.76,106.51H190a1.51,1.51,0,0,0-1.5,1.62v.11a1.39,1.39,0,0,0,1.38,1.29H197"/><line class="cls-5" x1="396.26" y1="124.62" x2="407.64" y2="124.62"/><line class="cls-5" x1="396.18" y1="129.06" x2="407.57" y2="129.06"/><line class="cls-8" x1="401.93" y1="172.59" x2="411.32" y2="172.59"/><line class="cls-8" x1="401.93" y1="177.67" x2="411.32" y2="177.67"/><line class="cls-8" x1="401.98" y1="181.85" x2="411.36" y2="181.85"/><line class="cls-8" x1="401.96" y1="185.03" x2="411.34" y2="185.03"/><line class="cls-8" x1="402" y1="190.21" x2="411.38" y2="190.21"/><line class="cls-8" x1="401.51" y1="194.64" x2="411.89" y2="194.64"/><line class="cls-8" x1="401.43" y1="199.08" x2="411.82" y2="199.08"/><line class="cls-8" x1="401.79" y1="203.21" x2="411.17" y2="203.21"/><line class="cls-8" x1="401.3" y1="207.65" x2="410.69" y2="207.65"/><line class="cls-8" x1="401.23" y1="212.08" x2="410.61" y2="212.08"/><line class="cls-8" x1="401.34" y1="215.56" x2="410.72" y2="215.56"/><line class="cls-8" x1="401.27" y1="220" x2="410.65" y2="220"/><line class="cls-8" x1="401.27" y1="224.43" x2="410.65" y2="224.43"/><line class="cls-8" x1="401.83" y1="239.84" x2="411.21" y2="239.84"/><line class="cls-8" x1="401.75" y1="244.28" x2="411.14" y2="244.28"/><line class="cls-8" x1="401.75" y1="248.71" x2="411.14" y2="248.71"/><line class="cls-8" x1="463.51" y1="82.22" x2="463.51" y2="91.97"/><line class="cls-8" x1="458.42" y1="82.22" x2="458.42" y2="91.61"/><line class="cls-8" x1="454.24" y1="82.26" x2="454.24" y2="91.65"/><line class="cls-8" x1="450.83" y1="82.24" x2="450.83" y2="91.63"/><line class="cls-8" x1="446.65" y1="82.29" x2="446.65" y2="91.67"/><line class="cls-8" x1="442.45" y1="82.4" x2="442.45" y2="92.18"/><line class="cls-8" x1="438.7" y1="82.44" x2="438.7" y2="92.14"/><line class="cls-8" x1="434.57" y1="82.44" x2="434.57" y2="92.01"/><line class="cls-8" x1="430.44" y1="82.4" x2="430.44" y2="91.97"/><line class="cls-8" x1="426.01" y1="82.4" x2="426.01" y2="91.9"/><line class="cls-8" x1="425.47" y1="71.26" x2="425.47" y2="61.87"/><line class="cls-8" x1="429.65" y1="71.22" x2="429.65" y2="61.83"/><line class="cls-8" x1="433.83" y1="71.24" x2="433.83" y2="61.85"/><line class="cls-8" x1="438.01" y1="71.19" x2="438.01" y2="61.81"/><line class="cls-8" x1="442.21" y1="71.11" x2="442.21" y2="61.33"/><line class="cls-8" x1="446.65" y1="71.11" x2="446.65" y2="61.41"/><line class="cls-8" x1="450.78" y1="71.11" x2="450.78" y2="61.54"/><line class="cls-8" x1="454.85" y1="71.11" x2="454.85" y2="61.54"/><line class="cls-8" x1="458.65" y1="71.11" x2="458.65" y2="61.61"/><line class="cls-5" x1="380.16" y1="71.53" x2="380.16" y2="62.15"/><line class="cls-5" x1="384.33" y1="71.49" x2="384.33" y2="62.1"/><line class="cls-5" x1="388.52" y1="71.51" x2="388.52" y2="62.13"/><line class="cls-5" x1="392.69" y1="71.47" x2="392.69" y2="62.08"/><line class="cls-5" x1="396.9" y1="71.39" x2="396.9" y2="61.6"/><line class="cls-8" x1="401.33" y1="71.39" x2="401.33" y2="61.68"/><line class="cls-8" x1="405.46" y1="71.39" x2="405.46" y2="61.81"/><line class="cls-8" x1="409.53" y1="71.39" x2="409.53" y2="61.81"/><line class="cls-8" x1="413.34" y1="71.39" x2="413.34" y2="61.89"/><line class="cls-5" x1="344.92" y1="71.5" x2="344.92" y2="62.11"/><line class="cls-5" x1="349.12" y1="71.42" x2="349.12" y2="61.64"/><line class="cls-5" x1="353.56" y1="71.42" x2="353.56" y2="61.71"/><line class="cls-5" x1="357.69" y1="71.42" x2="357.69" y2="61.84"/><line class="cls-5" x1="361.76" y1="71.42" x2="361.76" y2="61.84"/><line class="cls-5" x1="365.56" y1="71.42" x2="365.56" y2="61.92"/><line class="cls-8" x1="422.25" y1="82.31" x2="422.25" y2="91.89"/><line class="cls-8" x1="418.82" y1="82.31" x2="418.82" y2="91.89"/><line class="cls-8" x1="414.38" y1="82.31" x2="414.38" y2="91.81"/><line class="cls-5" x1="368.04" y1="127.45" x2="385.91" y2="127.45"/><line class="cls-5" x1="367.58" y1="132.53" x2="385.91" y2="132.53"/><line class="cls-5" x1="367.62" y1="136.71" x2="385.95" y2="136.71"/><line class="cls-5" x1="367.6" y1="140.89" x2="385.93" y2="140.89"/><line class="cls-5" x1="367.64" y1="145.07" x2="385.97" y2="145.07"/><line class="cls-5" x1="367.52" y1="149.77" x2="386.37" y2="149.76"/><line class="cls-5" x1="337.36" y1="89.36" x2="355.74" y2="89.36"/><line class="cls-5" x1="337.36" y1="94.45" x2="355.74" y2="94.45"/><line class="cls-5" x1="337.4" y1="98.63" x2="355.78" y2="98.63"/><line class="cls-5" x1="337.38" y1="102.81" x2="355.76" y2="102.81"/><line class="cls-5" x1="337.42" y1="106.99" x2="355.81" y2="106.99"/><line class="cls-5" x1="337.82" y1="111.68" x2="356.2" y2="111.68"/><line class="cls-5" x1="337.86" y1="115.86" x2="356.24" y2="115.86"/><line class="cls-5" x1="337.61" y1="127.51" x2="355.49" y2="127.51"/><line class="cls-5" x1="337.16" y1="132.6" x2="355.49" y2="132.6"/><line class="cls-5" x1="337.2" y1="136.78" x2="355.53" y2="136.77"/><line class="cls-5" x1="337.18" y1="140.96" x2="355.51" y2="140.96"/><line class="cls-5" x1="337.22" y1="145.13" x2="355.55" y2="145.13"/><line class="cls-5" x1="337.09" y1="149.83" x2="355.94" y2="149.83"/><line class="cls-8" x1="113.98" y1="256.52" x2="113.98" y2="274.4"/><line class="cls-8" x1="108.89" y1="256.07" x2="108.89" y2="274.4"/><line class="cls-8" x1="104.72" y1="256.11" x2="104.72" y2="274.44"/><line class="cls-8" x1="100.53" y1="256.09" x2="100.53" y2="274.42"/><line class="cls-8" x1="96.36" y1="256.13" x2="96.36" y2="274.46"/><line class="cls-8" x1="91.66" y1="256" x2="91.66" y2="274.85"/><line class="cls-8" x1="87.48" y1="256.04" x2="87.49" y2="274.9"/><line class="cls-8" x1="83.3" y1="256.02" x2="83.3" y2="274.87"/><line class="cls-8" x1="79.12" y1="256.07" x2="79.13" y2="274.92"/><line class="cls-8" x1="74.96" y1="256.52" x2="74.96" y2="274.4"/><line class="cls-8" x1="69.87" y1="256.07" x2="69.88" y2="274.4"/><line class="cls-8" x1="65.7" y1="256.11" x2="65.7" y2="274.44"/><line class="cls-8" x1="61.51" y1="256.09" x2="61.52" y2="274.42"/><line class="cls-8" x1="57.34" y1="256.13" x2="57.34" y2="274.46"/><line class="cls-8" x1="52.64" y1="256" x2="52.64" y2="274.85"/><line class="cls-8" x1="48.47" y1="256.04" x2="48.47" y2="264.9"/><line class="cls-8" x1="113.98" y1="286.3" x2="113.98" y2="304.17"/><line class="cls-8" x1="108.89" y1="285.84" x2="108.9" y2="304.17"/><line class="cls-8" x1="104.72" y1="285.88" x2="104.72" y2="304.21"/><line class="cls-8" x1="100.54" y1="285.86" x2="100.54" y2="304.19"/><line class="cls-8" x1="96.36" y1="285.91" x2="96.36" y2="304.24"/><line class="cls-8" x1="91.66" y1="285.78" x2="91.67" y2="304.63"/><line class="cls-8" x1="87.49" y1="285.82" x2="87.49" y2="304.67"/><line class="cls-8" x1="83.3" y1="285.8" x2="83.31" y2="304.65"/><line class="cls-8" x1="79.13" y1="285.84" x2="79.13" y2="304.69"/><line class="cls-8" x1="74.96" y1="286.3" x2="74.96" y2="304.17"/><line class="cls-8" x1="69.88" y1="285.84" x2="69.88" y2="304.17"/><line class="cls-8" x1="65.7" y1="285.88" x2="65.7" y2="295.21"/><line class="cls-8" x1="113.98" y1="314.54" x2="113.98" y2="322.95"/><line class="cls-8" x1="108.89" y1="314.62" x2="108.89" y2="322.95"/><line class="cls-8" x1="104.71" y1="314.66" x2="104.71" y2="322.99"/><line class="cls-8" x1="100.53" y1="314.64" x2="100.53" y2="322.97"/><line class="cls-8" x1="96.35" y1="314.68" x2="96.36" y2="323.01"/><line class="cls-8" x1="91.66" y1="314.56" x2="91.66" y2="323.41"/><line class="cls-8" x1="87.48" y1="314.6" x2="87.48" y2="323.45"/><line class="cls-8" x1="83.3" y1="314.58" x2="83.3" y2="323.43"/><line class="cls-8" x1="79.12" y1="314.62" x2="79.12" y2="323.47"/><line class="cls-8" x1="74.96" y1="315.08" x2="74.96" y2="322.95"/><line class="cls-8" x1="69.87" y1="314.62" x2="69.87" y2="322.95"/><line class="cls-5" x1="346.51" y1="86.21" x2="346.51" y2="153.28"/><line class="cls-5" x1="376.55" y1="86.21" x2="376.38" y2="153.28"/><path class="cls-5" d="M414.38,160.43v3.74H405.7l-8.42-6.76a1.25,1.25,0,0,1,.75-2.22l9.24-.25.86-69.58H397.58a.63.63,0,0,1-.64-.62l0-1.45a.64.64,0,0,1,.64-.65h13.08l0,9.19,57.05-.17V83.77a1.35,1.35,0,0,1,1.27-1.35l.37,0a1.35,1.35,0,0,1,1.42,1.35v8.79a1.89,1.89,0,0,1-1.84,1.89l-9.88.22.17,10,9,.16-.34,90.72-.51,146.89"/><path class="cls-5" d="M340.15,52.34H468.94a1.78,1.78,0,0,1,1.78,1.78V64.34l-3.06,5.83a1.53,1.53,0,0,1-1.35.81h-.88a1.52,1.52,0,0,1-1.52-1.52v-7.8H420.76v7.92a1.4,1.4,0,0,1-1.4,1.4h-.85a1.41,1.41,0,0,1-1.41-1.4V61.66H376.38V69.2A1.78,1.78,0,0,1,374.6,71h-1.87A1.78,1.78,0,0,1,371,69.23l-.1-7.57h-30l-.12,8.91a1.18,1.18,0,0,1-1.19,1.18h-.49a1.19,1.19,0,0,1-1.19-1.19V54.63A2.29,2.29,0,0,1,340.15,52.34Z"/><line class="cls-8" x1="459.1" y1="100.17" x2="467.91" y2="100.17"/><polyline class="cls-5" points="407.77 136.78 396.18 136.78 396.18 132.6 407.77 132.6"/><path class="cls-5" d="M397.74,141h9.56a0,0,0,0,1,0,0v7.38a0,0,0,0,1,0,0h-9.56a1.56,1.56,0,0,1-1.56-1.56v-4.27A1.56,1.56,0,0,1,397.74,141Z"/><rect class="cls-5" x="396.18" y="148.34" width="11.11" height="2.55"/><polyline class="cls-8" points="385.17 287.7 385.17 279.53 331.72 279.53 331.72 247.19 321.85 247.19 321.85 174.34 331.72 174.34 331.72 168.38 208.1 168.38 208.1 170.59"/><rect class="cls-8" x="184.93" y="171.24" width="24.17" height="24.17"/><rect class="cls-8" x="186.98" y="264.77" width="15.32" height="30.13"/><polyline class="cls-8" points="417.1 185.28 410.98 185.28 410.98 171.24 417.1 171.24"/><polyline class="cls-8" points="417.42 202.98 411.29 202.98 411.29 190.37 417.42 190.37"/><rect class="cls-8" x="411.29" y="228.04" width="6.13" height="6.13"/><polyline class="cls-8" points="417.1 224.43 410.98 224.43 410.98 207.11 417.1 207.11"/><polyline class="cls-8" points="417.1 238.04 410.98 238.04 410.98 253.53 417.1 253.53"/><rect class="cls-8" x="322.39" y="230.04" width="9.01" height="4.12"/><rect class="cls-8" x="322.66" y="238.04" width="8.74" height="5.02"/><path class="cls-8" d="M183.4,59V56.17a3.84,3.84,0,0,1,3.83-3.83H319.34a3.84,3.84,0,0,1,3.83,3.83V82.44l-9.47-.14.08,13.11h1.45l-.08,15h6.56a1.47,1.47,0,0,1,1.46,1.46v14.22a1.46,1.46,0,0,1-1.46,1.45h-8.1l-.17,25.77h8.23a1.5,1.5,0,0,1,1.5,1.5v.59a1.5,1.5,0,0,1-1.48,1.5l-1.44,0"/><line class="cls-8" x1="161.1" y1="63.45" x2="165.7" y2="63.45"/><line class="cls-8" x1="161.1" y1="73.02" x2="165.7" y2="73.02"/><line class="cls-8" x1="161.1" y1="81.58" x2="165.7" y2="81.58"/><line class="cls-8" x1="161.1" y1="91.15" x2="165.7" y2="91.15"/><line class="cls-8" x1="161.1" y1="99.96" x2="165.7" y2="99.96"/><line class="cls-8" x1="161.1" y1="109.53" x2="165.7" y2="109.53"/><line class="cls-8" x1="161.1" y1="118.09" x2="165.7" y2="118.09"/><line class="cls-8" x1="161.1" y1="127.66" x2="165.7" y2="127.66"/><line class="cls-8" x1="196.76" y1="128.43" x2="188.02" y2="128.43"/><line class="cls-8" x1="196.48" y1="132.9" x2="188.09" y2="132.9"/><path class="cls-8" d="M189.94,109.53h7a0,0,0,0,1,0,0V124a0,0,0,0,1,0,0h-7A1.93,1.93,0,0,1,188,122V111.46A1.93,1.93,0,0,1,189.94,109.53Z"/><line class="cls-8" x1="157.87" y1="145.51" x2="157.87" y2="154.6"/><polyline class="cls-8" points="209.1 226.98 195.32 226.98 195.32 203.24 209.1 203.24"/><polyline class="cls-8" points="209.1 241.02 203.61 241.02 203.61 236.56 209.1 236.56"/><polyline class="cls-8" points="209.1 255.92 204.63 255.92 204.63 249.58 209.1 249.58"/><path class="cls-8" d="M151.91,359.79V323.53H71.74L62,317.92,34.46,261.75s.52-47.49,0-58.73-9.7-28.76-9.7-28.76V144.81h134.3l2.55-9.7V48.3h22V59l5.11,13.28h8.68v64.85l-19.41.51s-3.06,19.24,11.75,19.24h135V48.3"/><line class="cls-8" x1="313.72" y1="86.21" x2="322.85" y2="86.21"/><line class="cls-8" x1="313.75" y1="90.64" x2="322.85" y2="90.64"/><line class="cls-8" x1="315.23" y1="95.41" x2="322.85" y2="95.41"/><line class="cls-8" x1="315.23" y1="98.82" x2="322.63" y2="98.82"/><path class="cls-8" d="M315.23,104.09h7.24a.7.7,0,0,1,.7.7v.64a.7.7,0,0,1-.7.7h-7.3"/><line class="cls-8" x1="313.75" y1="131.49" x2="322.11" y2="131.49"/><line class="cls-8" x1="313.75" y1="136.71" x2="322.11" y2="136.71"/><line class="cls-8" x1="313.75" y1="140.61" x2="322.11" y2="140.61"/><line class="cls-8" x1="313.75" y1="144.82" x2="322.11" y2="144.82"/><line class="cls-8" x1="313.75" y1="149.56" x2="322.11" y2="149.56"/><line class="cls-8" x1="388.85" y1="279.32" x2="388.85" y2="288.11"/><line class="cls-8" x1="393.27" y1="279.32" x2="393.27" y2="288.11"/><line class="cls-8" x1="397.33" y1="279.32" x2="397.33" y2="288.11"/><line class="cls-8" x1="401.75" y1="279.32" x2="401.75" y2="288.11"/><line class="cls-8" x1="405.78" y1="279.32" x2="405.78" y2="288.11"/><polyline class="cls-8" points="410.21 288.11 410.21 279.32 412.68 279.32 412.68 288.11"/><rect class="cls-8" x="402" y="253.53" width="15.1" height="12.51"/><polyline class="cls-8" points="410.98 262.98 414.63 262.98 414.63 260.87 416.68 260.87"/><polyline class="cls-8" points="416.42 258.45 414.83 258.45 414.83 256.8 411.29 256.8"/><line class="cls-8" x1="414.63" y1="262.98" x2="414.63" y2="266.04"/><line class="cls-8" x1="413.49" y1="262.98" x2="413.49" y2="266.04"/><line class="cls-8" x1="412.68" y1="262.98" x2="412.68" y2="266.04"/><line class="cls-8" x1="411.44" y1="262.98" x2="411.44" y2="266.04"/><line class="cls-8" x1="414.67" y1="253.73" x2="414.67" y2="256.8"/><line class="cls-8" x1="413.52" y1="253.73" x2="413.52" y2="256.8"/><line class="cls-8" x1="412.71" y1="253.73" x2="412.71" y2="256.8"/><line class="cls-8" x1="411.48" y1="253.73" x2="411.48" y2="256.8"/></g><g id="Layer_10" data-name="Layer 10"><rect class="cls-1" x="494.13" y="20.34" width="258.89" height="362.3"/><rect class="cls-8" x="0.59" y="403.64" width="752.43" height="153.6"/><line class="cls-8" x1="0.59" y1="444.47" x2="753.03" y2="444.47"/><line class="cls-8" x1="86.94" y1="403.64" x2="86.94" y2="557.24"/><line class="cls-8" x1="235.03" y1="403.64" x2="235.03" y2="557.24"/><line class="cls-8" x1="365.74" y1="403.64" x2="363.17" y2="557.24"/><line class="cls-8" x1="493.43" y1="403.64" x2="493.43" y2="557.24"/><line class="cls-8" x1="593.8" y1="403.64" x2="593.8" y2="557.24"/><line class="cls-8" x1="0.59" y1="480.44" x2="753.03" y2="484.33"/><line class="cls-8" x1="0.59" y1="518.35" x2="753.03" y2="518.35"/></g><g id="buildings"><rect class="cls-9" x="199.23" y="80.26" width="47.66" height="61.96"/><polygon class="cls-9" points="310.55 142.22 252.68 142.22 252.68 130.13 255.32 129.96 255.06 122.39 253.9 121.9 254.94 120.82 253.78 119.49 251.68 119.49 251.68 95.07 254.68 95.07 254.68 81.26 310.55 81.26 310.55 142.22"/><rect class="cls-9" x="417.1" y="106.13" width="48.34" height="181.45"/><polygon class="cls-9" points="324.17 336.6 209.1 336.6 209.1 170.47 320.17 170.47 320.17 263.24 321.44 263.32 321.44 281.62 320.17 281.62 320.17 287.7 324.17 287.58 324.17 336.6"/><polygon class="cls-9" points="465.44 336.6 324.17 336.6 324.17 287.58 338.46 287.58 338.42 286.58 344.51 286.58 344.63 288.58 349.91 288.58 349.87 286.58 367.49 286.58 367.53 287.7 373.4 287.7 373.36 286.58 379.4 286.58 379.32 288.17 465.44 287.58 465.44 336.6"/><rect class="cls-5" x="343.4" y="168.26" width="18.21" height="5.96" rx="1.79"/><rect class="cls-5" x="372.76" y="168.26" width="18.21" height="5.96" rx="1.79"/><rect class="cls-5" x="337.4" y="153.28" width="18.21" height="3.57" rx="1.79"/><rect class="cls-5" x="367.27" y="153.28" width="18.21" height="3.57" rx="1.79"/><rect class="cls-5" x="337.4" y="120.09" width="18.21" height="3.57" rx="1.79"/><rect class="cls-5" x="367.27" y="120.09" width="18.21" height="3.57" rx="1.79"/><rect class="cls-5" x="337.57" y="82.64" width="18.21" height="3.57" rx="1.79"/><rect class="cls-5" x="367.44" y="82.64" width="18.21" height="3.57" rx="1.79"/><line class="cls-5" x1="40.59" y1="174.21" x2="153.44" y2="174.21"/><line class="cls-5" x1="48.76" y1="204" x2="153.44" y2="204"/><line class="cls-5" x1="48.76" y1="235.15" x2="153.44" y2="235.15"/><line class="cls-5" x1="48.76" y1="264.77" x2="153.44" y2="264.77"/><line class="cls-5" x1="65.61" y1="294.9" x2="153.44" y2="294.9"/><polygon class="cls-10" points="38.29 340.34 48.78 308.43 60.51 340.34 49.4 330.64 38.29 340.34"/><path class="cls-11" d="M195.32,203.24h-2.94a3,3,0,0,0,2.94,3.06"/><path class="cls-11" d="M195.32,209.11h-2.94a3,3,0,0,1,2.94-3.07"/><path class="cls-11" d="M195.32,221.11h-2.94a3,3,0,0,0,2.94,3.06"/><path class="cls-11" d="M195.32,227h-2.94a3,3,0,0,1,2.94-3.06"/><rect class="cls-10" x="204.63" y="304.6" width="4.47" height="7.49"/><path class="cls-11" d="M288.56,81V79.52A1.49,1.49,0,0,0,287,81"/><path class="cls-11" d="M285.14,81V79.52A1.49,1.49,0,0,1,286.67,81"/><line class="cls-9" x1="417.1" y1="192.64" x2="465.44" y2="193.41"/><circle class="cls-12" cx="196.09" cy="335.01" r="2.56"/><circle class="cls-12" cx="203.04" cy="335.01" r="2.56"/><line class="cls-13" x1="413.49" y1="288.11" x2="413.49" y2="336.6"/></g><g id="Text"><text class="cls-14" transform="translate(211.66 115.79)">2066</text><text class="cls-14" transform="translate(268.85 115.79)">2060</text><text class="cls-14" transform="translate(248.93 263.98)">2052</text><text class="cls-14" transform="translate(362.09 318.74)">2048</text><text class="cls-14" transform="translate(429.65 319.22)">2038</text><text class="cls-14" transform="translate(429.65 232.11)">2028</text><text class="cls-14" transform="translate(430.45 159.09)">2022</text><text class="cls-14" transform="translate(44.62 349.02)">N</text><text class="cls-15" transform="translate(24.76 15.07)">SITE PLAN &amp; P<tspan class="cls-16" x="103.82" y="0">R</tspan><tspan class="cls-17" x="113.56" y="0">OPE</tspan><tspan class="cls-18" x="144.39" y="0">R</tspan><tspan class="cls-19" x="154.24" y="0">T</tspan><tspan x="163.69" y="0">Y HIGHLIGH</tspan><tspan class="cls-20" x="252.81" y="0">T</tspan><tspan class="cls-17" x="261.64" y="0">S</tspan></text><text class="cls-15" transform="translate(497.65 15.07)">2022-2066 <tspan class="cls-21" x="83.21" y="0">w</tspan><tspan x="95.76" y="0">. 11</tspan><tspan class="cls-22" x="121.77" y="0">TH ST</tspan><tspan x="154.68" y="0">. UPLAN</tspan><tspan class="cls-23" x="214.8" y="0">D</tspan><tspan x="226.17" y="0">, </tspan><tspan class="cls-24" x="233.72" y="0">C</tspan><tspan x="244.23" y="0">A</tspan></text><text class="cls-25" transform="translate(21.46 431.51)"><tspan class="cls-26">A</tspan><tspan x="8.4" y="0">dd</tspan><tspan class="cls-27" x="24.19" y="0">r</tspan><tspan x="28.63" y="0">ess</tspan></text><text class="cls-25" transform="translate(123.42 431.51)"><tspan class="cls-28">T</tspan><tspan x="5.96" y="0">otal </tspan><tspan class="cls-29" x="31.3" y="0">F</tspan><tspan class="cls-30" x="37.69" y="0">ootage</tspan></text><text class="cls-25" transform="translate(280.27 431.51)"><tspan class="cls-31">L</tspan><tspan x="6.41" y="0">oading</tspan></text><text class="cls-25" transform="translate(375.42 431.51)"><tspan class="cls-32">W</tspan><tspan x="11.38" y="0">a</tspan><tspan class="cls-33" x="18.13" y="0">r</tspan><tspan x="22.57" y="0">ehouse Heig</tspan><tspan class="cls-34" x="95.52" y="0">h</tspan><tspan class="cls-30" x="103.23" y="0">t</tspan></text><text class="cls-25" transform="translate(522 431.51)"><tspan class="cls-35">A</tspan><tspan class="cls-34" x="8.27" y="0">v</tspan><tspan x="14.95" y="0">ailable</tspan></text><text class="cls-25" transform="translate(621.66 431.51)"><tspan class="cls-26">A</tspan><tspan x="8.4" y="0">dditional </tspan><tspan class="cls-29" x="63.85" y="0">F</tspan><tspan x="70.24" y="0">e</tspan><tspan class="cls-34" x="77.25" y="0">a</tspan><tspan x="83.94" y="0">tu</tspan><tspan class="cls-33" x="96.29" y="0">r</tspan><tspan x="100.73" y="0">es</tspan></text><text class="cls-25" transform="translate(272.38 471.21)">1 DH / 2 GL</text><text class="cls-25" transform="translate(411.32 471.21)">15<tspan class="cls-36" x="14.36" y="0">”</tspan><tspan class="cls-37" x="19.19" y="0">M</tspan><tspan x="30.62" y="0">in</tspan></text><text class="cls-25" transform="translate(522.32 471.21)">July 2019</text><text class="cls-25" transform="translate(139.82 471.21)">18,310</text><text class="cls-25" transform="translate(140.95 506.96)">16,238</text><text class="cls-25" transform="translate(272.38 506.96)">2 DH/ 1 GL</text><text class="cls-25" transform="translate(414.38 506.96)">21<tspan class="cls-38" x="14.36" y="0">”</tspan><tspan x="18.12" y="0"> </tspan><tspan class="cls-37" x="21.08" y="0">M</tspan><tspan x="32.51" y="0">in</tspan></text><text class="cls-25" transform="translate(521.29 506.96)">July 2019</text><text class="cls-25" transform="translate(142.02 542.7)">34,510</text><text class="cls-39" transform="translate(535 46.33)">P<tspan class="cls-40" x="9.58" y="0">R</tspan><tspan x="19.31" y="0">OPE</tspan><tspan class="cls-18" x="50.15" y="0">R</tspan><tspan class="cls-19" x="59.99" y="0">T</tspan><tspan x="69.44" y="0">Y HIGHLIGH</tspan><tspan class="cls-41" x="158.56" y="0">T</tspan><tspan x="167.4" y="0">S</tspan></text><text class="cls-25" transform="translate(516.06 75.98)"><tspan class="cls-42">I</tspan><tspan x="3.49" y="0">ndust</tspan><tspan class="cls-43" x="37.04" y="0">r</tspan><tspan class="cls-44" x="41.68" y="0">ial </tspan><tspan class="cls-45" x="57.97" y="0">F</tspan><tspan x="64.55" y="0">l</tspan><tspan class="cls-46" x="67.86" y="0">e</tspan><tspan class="cls-44" x="74.83" y="0">x units with </tspan><tspan class="cls-43" x="145.14" y="0">D</tspan><tspan x="154.52" y="0">ock </tspan><tspan x="0" y="16.8">high and G</tspan><tspan class="cls-47" x="64.04" y="16.8">r</tspan><tspan x="68.54" y="16.8">ade </tspan><tspan class="cls-31" x="93.17" y="16.8">L</tspan><tspan x="99.58" y="16.8">e</tspan><tspan class="cls-33" x="106.59" y="16.8">v</tspan><tspan x="113.19" y="16.8">el loading</tspan></text><text class="cls-25" transform="translate(516.34 113.17)"><tspan class="cls-48">F</tspan><tspan x="6.45" y="0">i</tspan><tspan class="cls-27" x="9.73" y="0">r</tspan><tspan x="14.17" y="0">e Sp</tspan><tspan class="cls-43" x="39.02" y="0">r</tspan><tspan x="43.65" y="0">in</tspan><tspan class="cls-49" x="54.7" y="0">k</tspan><tspan x="61.5" y="0">ler</tspan></text><text class="cls-25" transform="translate(516.04 136.78)"><tspan class="cls-37">M</tspan><tspan class="cls-44" x="11.42" y="0">inimum</tspan><tspan class="cls-50" x="56.81" y="0"> </tspan><tspan class="cls-51" x="59.28" y="0">W</tspan><tspan x="71.05" y="0">he</tspan><tspan class="cls-33" x="85.83" y="0">r</tspan><tspan x="90.27" y="0">ehouse </tspan><tspan class="cls-52" x="135.98" y="0">c</tspan><tspan x="142.17" y="0" xml:space="preserve">eiling  Heig</tspan><tspan class="cls-34" x="207.81" y="0">h</tspan><tspan x="215.53" y="0">ts </tspan><tspan x="0" y="16.8">up </tspan><tspan class="cls-53" x="18.65" y="16.8">t</tspan><tspan class="cls-30" x="23.2" y="16.8">o 21</tspan><tspan class="cls-54" x="48.21" y="16.8">’</tspan></text><text class="cls-25" transform="translate(516.51 176.17)"><tspan class="cls-42">I</tspan><tspan x="3.49" y="0">nstitutionally </tspan><tspan class="cls-55" x="83.34" y="0">o</tspan><tspan x="90.93" y="0">wned and </tspan><tspan x="0" y="16.8">managed </tspan><tspan class="cls-55" x="58.65" y="16.8">b</tspan><tspan x="66.51" y="16.8">y O</tspan><tspan class="cls-33" x="85.72" y="16.8">r</tspan><tspan x="90.16" y="16.8">o </tspan><tspan class="cls-55" x="100.81" y="16.8">C</tspan><tspan x="108.83" y="16.8">apital </tspan><tspan class="cls-26" x="144.48" y="16.8">A</tspan><tspan class="cls-30" x="152.88" y="16.8">dvisors</tspan></text><text class="cls-25" transform="translate(516.57 217.58)"><tspan class="cls-56">C</tspan><tspan class="cls-30" x="7.97" y="0">o</tspan><tspan class="cls-57" x="15.65" y="0">n</tspan><tspan x="23.24" y="0">vinie</tspan><tspan class="cls-34" x="51.31" y="0">n</tspan><tspan x="59.02" y="0">tly loc</tspan><tspan class="cls-58" x="93.79" y="0">a</tspan><tspan class="cls-53" x="100.48" y="0">t</tspan><tspan class="cls-30" x="105.03" y="0">ed near the </tspan><tspan x="0" y="16.8">210 and 10 f</tspan><tspan class="cls-27" x="71.31" y="16.8">r</tspan><tspan x="75.75" y="16.8">ee</tspan><tspan class="cls-34" x="89.78" y="16.8">w</tspan><tspan class="cls-59" x="100.03" y="16.8">a</tspan><tspan class="cls-53" x="106.66" y="16.8">y</tspan><tspan x="113.17" y="16.8">s</tspan></text><text class="cls-25" transform="translate(515.87 256.62)">Nume<tspan class="cls-33" x="35.62" y="0">r</tspan><tspan x="40.05" y="0">ous </tspan><tspan class="cls-43" x="63.97" y="0">R</tspan><tspan x="71.55" y="0">etail </tspan><tspan class="cls-60" x="99.5" y="0">A</tspan><tspan class="cls-30" x="108.02" y="0">nemeties in the a</tspan><tspan class="cls-33" x="208.08" y="0">r</tspan><tspan x="212.52" y="0">ea</tspan></text><circle class="cls-4" cx="507.89" cy="73.55" r="1.43"/><circle class="cls-4" cx="507.32" cy="110.29" r="1.43"/><circle class="cls-4" cx="507.32" cy="132.6" r="1.43"/><circle class="cls-4" cx="507.32" cy="173.15" r="1.43"/><circle class="cls-4" cx="507.32" cy="213.97" r="1.43"/><circle class="cls-4" cx="507.32" cy="252.79" r="1.43"/><text class="cls-61" transform="translate(556.91 280.85)">ONT <tspan class="cls-62" x="24.67" y="0">A</tspan><tspan class="cls-63" x="31.98" y="0">ir</tspan><tspan class="cls-64" x="38.71" y="0">P</tspan><tspan x="44.8" y="0">o</tspan><tspan class="cls-65" x="51.38" y="0">r</tspan><tspan x="55.6" y="0">t</tspan></text><text class="cls-61" transform="translate(557.15 309.19)"><tspan class="cls-66">C</tspan><tspan x="6.88" y="0">able </tspan><tspan class="cls-46" x="30.88" y="0">A</tspan><tspan x="38.18" y="0">i</tspan><tspan class="cls-67" x="40.99" y="0">r</tspan><tspan x="44.96" y="0">po</tspan><tspan class="cls-65" x="58.38" y="0">r</tspan><tspan x="62.59" y="0">t</tspan></text><text class="cls-61" transform="translate(557.38 336.77)">UPS HUB</text><text class="cls-61" transform="translate(556.61 364.34)">Nea<tspan class="cls-68" x="19.69" y="0">r</tspan><tspan x="23.5" y="0">est </tspan><tspan class="cls-69" x="40.78" y="0">F</tspan><tspan class="cls-70" x="46.31" y="0">r</tspan><tspan x="50.11" y="0">ee</tspan><tspan class="cls-71" x="62.14" y="0">w</tspan><tspan class="cls-72" x="70.92" y="0">a</tspan><tspan class="cls-73" x="76.61" y="0">y Exit</tspan></text><text class="cls-74" transform="translate(673.49 280.85)">7 miles</text><text class="cls-74" transform="translate(673.49 309.19)">1 mile</text><text class="cls-74" transform="translate(673.85 336.77)">4 miles</text><text class="cls-74" transform="translate(673.51 364.34)">1 mile</text></g><g id="icons"><path class="cls-75" d="M533.1,278l2.25,6.26a.66.66,0,0,0,1.11.23l.5-.52a.68.68,0,0,0,.19-.52l-.73-8.22,4-3.64a1,1,0,0,0,.08-1.29l-.15-.18a1,1,0,0,0-1.35-.14l-4.28,3.44-7-2.85a.67.67,0,0,0-.63.07l-.65.46a.66.66,0,0,0,0,1.07l5.19,3.87-3.27,2.85-1.62-.32a.49.49,0,0,0-.71-.06l-.41.36a.5.5,0,0,0,0,.69l3.11,3.74a.55.55,0,0,0,.79.06l.28-.24a.55.55,0,0,0,.07-.77l0-1.81Z"/><line class="cls-75" x1="524.98" y1="280.62" x2="521.02" y2="283.87"/><line class="cls-75" x1="526" y1="282" x2="517.78" y2="288.56"/><line class="cls-75" x1="526.91" y1="283.53" x2="521.89" y2="287.47"/><line class="cls-75" x1="520.53" y1="284.15" x2="519.27" y2="285.13"/><line class="cls-75" x1="521.49" y1="287.73" x2="520.17" y2="288.79"/><rect class="cls-75" x="523.59" y="293.87" width="9.49" height="3.89" rx="1.18"/><rect class="cls-75" x="525.46" y="297.77" width="5.66" height="2.11"/><path class="cls-75" d="M523.85,299.87h8.87a1.28,1.28,0,0,1,1.28,1.28v.77a0,0,0,0,1,0,0H522.57a0,0,0,0,1,0,0v-.77A1.28,1.28,0,0,1,523.85,299.87Z"/><rect class="cls-75" x="522.57" y="301.92" width="11.43" height="8.74"/><path class="cls-75" d="M517.75,302.81h4.56a0,0,0,0,1,0,0v2a0,0,0,0,1,0,0h-5.81a0,0,0,0,1,0,0v-.73A1.24,1.24,0,0,1,517.75,302.81Z"/><rect class="cls-75" x="516.51" y="304.79" width="5.81" height="5.81"/><line class="cls-75" x1="519.41" y1="305.41" x2="519.41" y2="310.6"/><path class="cls-75" d="M534,302.81h4.56a1.24,1.24,0,0,1,1.24,1.24v.73a0,0,0,0,1,0,0H534a0,0,0,0,1,0,0v-2A0,0,0,0,1,534,302.81Z"/><rect class="cls-75" x="534" y="304.79" width="5.81" height="5.81"/><line class="cls-75" x1="536.9" y1="305.41" x2="536.9" y2="310.6"/><path class="cls-75" d="M525.32,304.79h5.94a.7.7,0,0,1,.7.7v5.11a0,0,0,0,1,0,0h-7.34a0,0,0,0,1,0,0v-5.11A.7.7,0,0,1,525.32,304.79Z"/><rect class="cls-75" x="516.51" y="310.6" width="23.3" height="2.23"/><polygon class="cls-4" points="524.83 362.69 517.74 367.99 515.97 366.69 523.08 361.37 524.83 362.69"/><polygon class="cls-4" points="527.27 364.47 520.17 369.78 518.4 368.48 525.51 363.16 527.27 364.47"/><polygon class="cls-4" points="535.02 369.72 515.88 355.6 517.63 354.29 536.77 368.4 535.02 369.72"/><path class="cls-76" d="M516.94,355.66c4.13,3,4.15,8,.06,11"/><path class="cls-76" d="M534.88,368.9a13.23,13.23,0,0,0-14.87,0"/><polygon class="cls-4" points="529.85 358.93 536.94 353.63 535.17 352.32 528.07 357.64 529.85 358.93"/><polygon class="cls-4" points="532.26 360.74 539.37 355.42 537.6 354.12 530.5 359.43 532.26 360.74"/><polygon class="cls-4" points="539.39 366.45 520.25 352.34 518.49 353.65 537.63 367.76 539.39 366.45"/><path class="cls-76" d="M520.33,353.13a13.24,13.24,0,0,0,14.87,0"/><path class="cls-76" d="M538.29,366.35c-4.12-3-4.15-8,0-11.05"/></g></g></svg>